<?xml version="1.0" standalone="no"?> <!DOCTYPE svg PUBLIC "-//W3C//DTD SVG 1.0//EN" "http://www.w3.org/TR/2001/REC-SVG-20010904/DTD/svg10.dtd" > <svg xmlns="http://www.w3.org/2000/svg" width="100%" height="100%">
<defs >
<font horiz-adv-x="661" ><font-face
    font-family="Autograf PERSONAL USE ONLY"
    units-per-em="1000"
    panose-1="0 0 0 0 0 0 0 0 0 0"
    ascent="750"
    descent="-250"
    alphabetic="0" />
<missing-glyph horiz-adv-x="303" />
<glyph unicode=" " glyph-name="space" horiz-adv-x="303" />
<glyph unicode="!" glyph-name="exclam" horiz-adv-x="418" d="M146 -58Q132 -58 123 -48T111 -27T114 -6T137 4Q151 4 160 -5T172 -27T168 -48T146 -58ZM203 118Q241 178 291 230T393 331Q420 356 449 381T512 422Q522 426 533 429T555 427Q564 422 567 415T570
399T563 384T548 375Q486 343 436 297T337 199Q314 174 291 149T249 95Q242 84 231 82T212 84T200 97T203 118Z" />
<glyph unicode="&quot;" glyph-name="quotedbl" horiz-adv-x="357" d="M174 137Q157 137 152 144T147 161T155 181T167 198Q172 204 179 213T193 230T209 244T226 253Q240 255 250 245T259 221Q257 212 251 205T238 192Q232 186 225 177T210 159T192 144T174 137ZM249
129Q227 129 223 138T224 161T240 186T255 205Q261 212 268 222T285 243T303 261T322 271Q332 273 340 269T352 258T356 241T349 225Q345 218 339 212T327 201Q321 194 312 182T293 158T271 138T249 129Z" />
<glyph unicode="#" glyph-name="numbersign" horiz-adv-x="535" d="M214 -64Q197 -64 192 -57T187 -39T195 -19T207 -1L211 5H154Q146 -6 135 -18T110 -31Q87 -31 83 -21T87 5H55Q50 5 45 5T34 6Q23 10 19 19T15 37T24 53T43 60Q57 63 74 62T105 60H127Q135 69
141 75T150 84Q155 89 158 94T167 104H147Q142 104 137 104T127 104Q113 104 106 112T99 131T106 151T127 160Q142 163 160 162T194 160H217Q225 168 233 178T252 190Q270 194 277 184T283 160H337Q341 165 345 169T353 179Q357 185 363 193T376 209T390 222T407
227Q423 226 428 219T432 202T424 182T412 164L409 160H451Q456 160 461 160T472 160Q485 160 492 151T499 132T492 113T472 104H363L343 79L328 60H331Q336 60 341 60T352 59Q363 55 367 46T370 28T362 12T343 5H283Q278 0 274 -5T266 -16Q261 -22 256 -30T244
-45T230 -58T214 -64ZM202 60H256Q261 66 266 72T276 84L292 104H241L222 82L202 60Z" />
<glyph unicode="$" glyph-name="dollar" horiz-adv-x="443" d="M83 -130Q63 -130 58 -122T55 -103T66 -80T82 -58Q61 -52 45 -39T25 -2Q23 10 25 26T38 50Q51 60 66 53T82 28Q82 20 82 15T82 6T88 0T101 -6L121 -9L192 80Q169 87 157 102T157 150Q165 171 182
185T220 208T264 220T308 225Q313 231 320 242T336 264T355 282T375 290Q393 289 398 281T401 262T390 239T375 218Q381 216 386 214T397 208Q406 202 411 190T417 167T409 148T387 141Q379 141 376 144T369 152T363 161T355 166L335 169L293 116Q304 115 315 110Q343
98 347 73T338 23Q325 1 303 -15T255 -41T201 -57T148 -64V-65Q143 -71 136 -82T120 -103T102 -122T83 -130ZM293 59Q285 62 275 64T254 69L199 0Q212 3 227 8T255 20T279 36T293 59ZM209 131Q217 127 228 125L259 163Q242 159 228 152T209 131Z" />
<glyph unicode="%" glyph-name="percent" horiz-adv-x="455" d="M37 -62Q25 -62 19 -56T10 -41T12 -23T25 -9L53 6L180 72L196 80Q176 89 165 108T156 150Q157 169 167 185T192 214T225 233T261 240Q278 240 292 233T317 214T331 187T331 154Q330 153 330 150Q346
159 364 170T400 185Q412 187 419 181T430 166T430 148T416 132Q410 129 404 126T391 119L272 57Q292 46 302 25T307 -21Q303 -38 293 -52T268 -78T237 -95T203 -101Q171 -101 151 -78T132 -24Q132 -18 133 -15L118 -24Q110 -28 100 -34T79 -47T57 -57T37 -62ZM261
184Q252 184 240 177T219 161T211 142T227 129Q236 129 248 137T268 156T276 175T261 184ZM237 10Q228 10 216 3T195 -13T187 -32T203 -45Q212 -45 224 -37T244 -18T252 1T237 10Z" />
<glyph unicode="&amp;" glyph-name="ampersand" horiz-adv-x="682" d="M580 -65Q529 -83 473 -85T369 -67Q342 -84 312 -98T250 -123T188 -136T127 -133Q93 -126 74 -106T49 -61T52 -8T85 41Q120 74 163 93T251 126Q258 178 292 221T378 286Q396 293 419 295T464
292T498 271T509 228Q507 201 490 181T449 145T399 120T351 103L305 90Q310 63 326 40T366 -1Q392 16 416 38T459 86Q464 93 468 106T477 131T488 154T504 168Q521 172 528 165T537 145T535 118T529 96Q515 59 488 29T430 -24L424 -28Q438 -32 457 -34Q480 -35
503 -32T549 -21Q557 -19 565 -16T583 -18Q590 -22 593 -28T597 -42T592 -56T580 -65ZM102 -50Q111 -75 135 -80T191 -80T254 -60T312 -32Q300 -21 289 -8T270 22Q256 48 252 74Q240 69 229 65T207 56Q194 50 174 40T135 16T106 -14T102 -50ZM333 185Q318 165 310
144Q323 149 335 153T360 162Q364 163 382 173T419 195T449 219T451 237Q438 246 421 243T386 230T355 207T333 185Z" />
<glyph unicode="&apos;" glyph-name="quotesingle" horiz-adv-x="184" d="M139 159Q117 159 113 168T114 191T130 216T145 235Q151 242 158 252T175 273T193 291T212 301Q222 303 230 299T242 288T246 271T239 255Q235 248 229 242T217 231Q211 224 202 212T183
188T161 168T139 159Z" />
<glyph unicode="(" glyph-name="parenleft" horiz-adv-x="388" d="M138 -136Q117 -136 104 -120T85 -81T79 -35T81 3Q89 40 110 71T158 129Q190 159 226 183T300 227Q323 238 345 248T391 267Q402 271 414 276T440 286T467 294T491 297Q508 296 515 281T512 252Q506
244 494 239T469 230T441 223T418 217Q373 200 331 180T249 132Q214 107 182 73T137 -4Q131 -25 134 -48T155 -86Q163 -92 165 -100T164 -117T155 -130T138 -136Z" />
<glyph unicode=")" glyph-name="parenright" horiz-adv-x="419" d="M-80 -136Q-89 -136 -95 -132T-105 -120T-108 -105T-102 -90Q-96 -82 -84 -77T-58 -68T-31 -61T-8 -55Q37 -38 79 -18T161 30Q196 55 228 88T273 166Q279 187 276 210T255 247Q247 253 245 262T246
279T256 292T273 297Q294 297 307 281T326 242T332 197T329 159Q321 122 300 91T252 33Q221 2 185 -21T110 -65Q87 -76 65 -86T19 -105Q-3 -113 -30 -124T-80 -136Z" />
<glyph unicode="*" glyph-name="asterisk" horiz-adv-x="342" d="M200 33Q188 16 172 17T148 35Q138 27 128 21T109 14Q96 14 90 18T83 29T83 43T91 59Q86 59 76 61Q65 62 61 71T57 89T66 107T85 115H116Q112 132 115 140Q120 153 133 157T158 152Q160 150 163
146T170 136Q182 147 193 154T211 162Q225 163 234 152T239 127Q238 124 231 115Q237 115 242 115T250 114Q261 110 265 101T268 83T260 66T241 59Q231 59 222 59T203 58Q207 42 200 33Z" />
<glyph unicode="+" glyph-name="plus" horiz-adv-x="342" d="M171 57Q165 51 158 44T142 30T125 19T109 14Q96 14 90 18T83 28T83 43T91 58Q90 58 90 59Q79 62 75 71T71 89T80 106T99 113Q110 115 122 115T147 115Q165 132 183 146T211 162Q225 163 234 152T239
127Q238 122 227 111Q237 107 241 98T244 80T235 64T217 57H171Z" />
<glyph unicode="," glyph-name="comma" horiz-adv-x="318" d="M48 -76Q31 -76 26 -69T22 -51T30 -31T45 -14Q51 -9 58 -2T74 13T92 27T110 33Q124 34 133 23T138 -2Q136 -11 129 -17T115 -29Q109 -34 101 -42T84 -57T66 -70T48 -76Z" />
<glyph unicode="-" glyph-name="hyphen" horiz-adv-x="395" d="M164 27Q156 27 147 27T129 29Q118 32 114 41T110 59T119 76T138 83Q159 88 183 86T230 83Q238 83 247 83T265 82Q276 78 280 69T283 51T275 34T256 27H164Z" />
<glyph unicode="." glyph-name="period" horiz-adv-x="318" d="M118 -18Q104 -18 95 -8T83 13T86 34T109 44Q123 44 132 35T144 13T140 -8T118 -18Z" />
<glyph unicode="/" glyph-name="slash" horiz-adv-x="397" d="M8 -96Q-3 -96 -9 -91T-18 -77T-18 -60T-7 -45L21 -24Q53 -1 84 22T147 70Q182 96 217 122T287 174Q294 179 303 187T322 204T342 218T362 224Q373 224 379 218T388 204T389 188T378 173L350 152Q318
128 287 105T224 58L84 -47Q77 -52 68 -60T49 -76T28 -90T8 -96Z" />
<glyph unicode="0" glyph-name="zero" horiz-adv-x="911" d="M17 397Q51 415 84 430T155 456Q157 456 159 466T163 488T167 511T171 527Q182 544 204 553T242 570Q285 587 329 600T419 625Q465 636 511 644T604 656Q620 658 643 660T689 662T734 656T769 637Q770
635 768 623T765 607L762 559Q762 557 764 557Q802 546 838 529T899 478V477Q891 479 881 476T861 466T843 452T829 439Q844 431 853 416T867 384T870 348T864 315Q856 336 840 347T803 364T762 371T721 374Q699 376 675 375T630 382Q622 385 619 394T616 415T616
438T619 456Q529 449 442 429T270 379Q266 378 266 376Q267 371 270 360T275 335T278 311T275 297Q264 288 247 287T215 283Q196 280 177 277T138 271Q121 267 106 263T75 252Q68 248 61 246T47 238Q43 234 38 228T30 220Q35 237 42 253T55 284Q56 287 61 296T72
316T81 335T84 346Q72 363 56 379T17 397ZM747 457Q750 484 750 512T752 566Q752 580 753 594T756 622Q757 629 753 633T743 639T730 643T717 645Q659 654 597 646T477 625Q414 612 353 596T231 553Q220 547 209 541T187 527Q177 519 175 503T171 476Q167 444 167
412T167 346Q171 346 178 349T192 356T205 365T217 372Q235 380 253 386T291 400Q329 411 367 421T445 440Q483 448 520 455T597 466Q632 470 672 471T747 457ZM660 519Q655 515 652 512T643 506Q638 504 635 506T629 510Q627 508 623 506T615 503Q600 500 594
513V514Q590 509 586 506T574 500Q567 496 562 506Q559 512 560 517T564 528T569 538T570 550Q561 546 558 541T552 528T549 514T545 500Q542 492 533 496Q529 497 529 501Q529 503 529 505T530 509Q523 507 521 507T513 502Q508 497 501 493T486 489Q481 490 478
493T473 500Q465 492 454 484T429 478Q421 479 417 487Q405 473 392 469Q378 463 376 479Q374 492 380 500T391 519Q392 521 390 521T386 520Q382 510 377 499T365 477T347 460T324 454Q309 455 307 465T309 487T325 510T346 521Q352 521 354 516Q358 510 355 502Q352
491 342 483T320 472Q321 466 325 466T333 467T342 472T348 477Q360 487 365 499T376 525Q377 526 376 529T372 537T368 545T367 553Q372 566 384 564Q390 564 392 558Q394 553 393 547T392 535Q402 536 406 535T404 521Q400 513 396 505T390 487Q390 482 393 482Q403
482 410 492T422 514T433 539T446 556Q450 557 454 555Q455 553 455 549Q453 543 450 539T449 527Q452 521 455 515T458 501H459Q469 513 475 530T497 556Q515 563 521 546Q526 539 524 534T523 520Q527 521 530 525Q538 531 539 542T543 562Q545 564 548 564T554
564Q559 563 558 558V557Q563 562 570 565Q575 568 578 566T584 559Q586 553 585 548T581 538T576 527T574 515Q581 521 586 528T595 542T603 556T616 568Q626 573 641 568Q643 571 649 572T654 565Q652 556 647 546T642 526Q642 519 646 525Q656 535 661 548T670
575T682 601T703 622Q710 626 715 618Q721 607 717 595T705 574Q698 565 684 553T672 527Q674 519 683 521Q690 524 693 530T701 543Q703 544 707 544Q711 544 711 539L709 533Q701 514 683 507Q671 500 662 514Q660 516 660 519ZM878 485Q854 508 824 522T762
545Q761 517 761 490T758 435L757 436V433Q744 432 726 431T689 427T656 416T632 397Q628 394 634 393Q647 388 662 387T692 385T723 385T752 384Q766 383 780 382T808 375Q822 371 833 364T857 350Q857 380 847 402T807 435Q824 450 841 463T878 485ZM156 445Q127
437 99 426T44 400Q77 382 97 347Q98 346 95 340T88 326T81 312T76 302Q64 280 56 256Q81 269 107 275T160 285T213 292T266 304Q257 313 243 316T213 320T181 320T154 317Q154 349 154 381T156 445ZM385 166Q385 171 381 177H409Q423 171 434 153T451 120Q451
132 452 149T446 177H482Q476 172 476 165T477 151V31Q477 24 477 16T482 2H381Q386 9 387 19T389 40T387 63T385 82V166ZM334 177Q352 177 360 167T372 143T374 112T373 82V43Q373 20 360 11T325 2Q306 2 298 12T286 36T284 67T285 97Q285 107 285 116T285 135Q285
159 298 168T334 177ZM281 551Q287 551 291 550Q299 549 304 543T311 527Q314 506 300 487T267 456Q258 450 254 441T245 422T235 403T218 389Q207 381 192 384Q186 386 182 391T179 403Q179 414 186 421T204 431Q207 432 211 430T214 423Q208 419 203 419Q197
417 195 411T196 400Q198 398 200 398T204 396Q214 395 220 401T231 418T238 438T242 455Q229 442 212 438Q199 436 191 444Q183 448 183 462Q183 475 189 487Q202 517 231 535Q237 538 243 541T257 546Q262 548 267 552T278 557Q284 557 281 551ZM384 294Q382
301 379 312T375 336T376 358T386 375Q391 380 401 380T416 372Q419 364 415 362T406 359T398 363T398 371Q390 367 390 357T392 336T401 313T408 296Q414 278 416 254T406 212Q401 205 390 203T365 200T339 201T319 203Q325 210 326 221T328 244T326 268T324 289V350Q324
358 324 365T319 379H356Q349 373 350 363T351 345V276Q351 268 350 252T355 229Q362 218 373 225T387 241Q391 254 389 267T384 294ZM590 317Q588 313 583 303T573 281T567 259T572 245Q569 251 574 251T584 250T591 243T583 234Q571 229 566 238T562 256Q562
264 565 272T569 287T567 298T553 301V225Q561 225 573 224T595 229Q592 222 591 216T588 203H520Q525 209 525 215T526 229V350Q526 357 526 365T520 379H582Q594 367 594 350T590 317ZM502 374Q502 367 505 360T512 345T515 330T507 317Q500 312 491 312T480
323Q480 329 483 331T491 334T498 332T500 325Q507 326 507 331T503 341T494 351T485 357Q478 359 469 358T457 348Q451 336 455 327T467 311T485 298T501 284Q508 274 512 261T514 236T504 214T481 203Q468 202 455 202T428 203Q432 205 431 212T427 229T423 247T426
263Q431 269 442 269T455 259Q455 254 452 252T444 249T437 251T434 258Q428 256 428 251T431 241T440 232T448 226Q455 224 465 224T480 229Q490 239 488 249T479 267T461 283T446 295Q437 303 431 315T425 341T431 364T453 378Q466 381 479 380T505 379L502 374ZM146
-65L125 -174H104Q101 -156 99 -138T94 -102Q92 -120 89 -138T82 -174H61L42 -65H65Q67 -85 68 -105T74 -146Q76 -126 79 -106T86 -65H104L116 -146Q118 -126 120 -106T125 -65H146ZM252 -65L231 -174H211Q207 -156 205 -138T200 -102Q198 -120 195 -138T189 -174H167L149
-65H171Q173 -85 175 -105T180 -146Q182 -126 185 -106T192 -65H211L222 -146Q224 -126 226 -106T231 -65H252ZM358 -65L338 -174H317Q313 -156 311 -138T306 -102Q304 -120 301 -138T295 -174H274L255 -65H277Q279 -85 281 -105T286 -146Q288 -126 291 -106T298
-65H317L329 -146Q330 -126 332 -106T338 -65H358ZM546 -122Q553 -125 556 -131T561 -145T564 -160T568 -174H543Q540 -168 539 -161T536 -147T530 -136T517 -132V-174H491V-66Q505 -64 522 -63T553 -70Q568 -81 564 -98T546 -122ZM748 -174H723Q713 -155 705 -136T688
-98Q689 -117 689 -136T689 -174H666V-65H694L727 -139Q725 -120 725 -102T725 -65H748V-174ZM487 2Q493 9 494 20T496 43T494 66T492 86V148Q492 156 492 162T487 177H524Q519 172 518 162T516 142T518 121T519 103V22H570Q581 22 597 21T624 27Q622 23 621 13T614
2H487ZM478 -174H453L446 -149H420L415 -174H389L418 -65H449L478 -174ZM848 -170Q828 -178 810 -175T779 -160T763 -131T770 -92Q776 -78 789 -71T820 -64Q821 -64 825 -64T833 -65T841 -67T845 -69L841 -89Q828 -83 818 -85T800 -94T790 -112T791 -135Q799 -158
821 -155Q826 -154 825 -145T824 -131H811V-111H848V-170ZM573 90Q567 101 563 112T554 135Q549 146 547 157T536 177H574Q568 163 575 145T588 115Q594 129 599 145T599 177H638Q627 171 625 158T620 135Q617 125 609 112T600 88Q600 77 599 61T605 35H568Q577
44 575 61T573 90ZM347 135Q347 143 342 148T331 156T320 155T312 144Q311 137 311 130T312 116Q312 98 312 80T312 43Q312 35 316 30T327 23T338 23T346 35Q347 41 347 48T347 63V135ZM451 17Q449 48 441 79T412 136V23Q412 16 417 12T430 6T443 7T451 17ZM262
536Q248 533 237 525T215 506Q212 503 208 494T200 475T198 458T209 450Q224 450 233 459T248 482T257 511T262 536ZM582 -65H608V-174H582V-65ZM259 464Q266 466 273 473T286 490T293 510T293 527Q290 538 277 538Q270 520 267 502T259 464ZM553 323Q563 323 575
324T589 340Q589 348 586 351T577 356T565 358T553 358V323ZM635 553Q634 557 633 559T627 560Q619 556 615 549T608 533Q606 528 608 520T619 518Q625 524 629 534T635 553ZM486 510Q491 503 498 507Q506 509 509 517T511 534Q510 539 507 542T496 540Q486 533
484 517L486 510ZM349 -160Q349 -153 353 -149T364 -145T374 -149T379 -160Q379 -168 375 -171T364 -175T354 -172T349 -160ZM622 -160Q622 -153 626 -149T637 -145T647 -149T652 -160Q652 -168 648 -171T637 -175T627 -172T622 -160ZM523 -113Q532 -113 536 -108T539
-97T534 -87T520 -83Q515 -84 516 -96T517 -113H523ZM443 -130Q441 -119 439 -108T433 -85L423 -130H443ZM437 518Q434 514 430 507T427 495Q429 489 435 490T442 497Q443 506 437 518ZM320 482Q326 481 334 489T343 503Q345 507 342 509T336 508Q331 503 327 496T320
482ZM704 607Q686 589 680 565Q688 575 695 584T705 607H704ZM383 539Q383 543 383 545T383 552Q380 552 379 549Q378 545 381 539H383Z" />
<glyph unicode="1" glyph-name="one" horiz-adv-x="911" d="M17 397Q51 415 84 430T155 456Q157 456 159 466T163 488T167 511T171 527Q182 544 204 553T242 570Q285 587 329 600T419 625Q465 636 511 644T604 656Q620 658 643 660T689 662T734 656T769 637Q770
635 768 623T765 607L762 559Q762 557 764 557Q802 546 838 529T899 478V477Q891 479 881 476T861 466T843 452T829 439Q844 431 853 416T867 384T870 348T864 315Q856 336 840 347T803 364T762 371T721 374Q699 376 675 375T630 382Q622 385 619 394T616 415T616
438T619 456Q529 449 442 429T270 379Q266 378 266 376Q267 371 270 360T275 335T278 311T275 297Q264 288 247 287T215 283Q196 280 177 277T138 271Q121 267 106 263T75 252Q68 248 61 246T47 238Q43 234 38 228T30 220Q35 237 42 253T55 284Q56 287 61 296T72
316T81 335T84 346Q72 363 56 379T17 397ZM747 457Q750 484 750 512T752 566Q752 580 753 594T756 622Q757 629 753 633T743 639T730 643T717 645Q659 654 597 646T477 625Q414 612 353 596T231 553Q220 547 209 541T187 527Q177 519 175 503T171 476Q167 444 167
412T167 346Q171 346 178 349T192 356T205 365T217 372Q235 380 253 386T291 400Q329 411 367 421T445 440Q483 448 520 455T597 466Q632 470 672 471T747 457ZM660 519Q655 515 652 512T643 506Q638 504 635 506T629 510Q627 508 623 506T615 503Q600 500 594
513V514Q590 509 586 506T574 500Q567 496 562 506Q559 512 560 517T564 528T569 538T570 550Q561 546 558 541T552 528T549 514T545 500Q542 492 533 496Q529 497 529 501Q529 503 529 505T530 509Q523 507 521 507T513 502Q508 497 501 493T486 489Q481 490 478
493T473 500Q465 492 454 484T429 478Q421 479 417 487Q405 473 392 469Q378 463 376 479Q374 492 380 500T391 519Q392 521 390 521T386 520Q382 510 377 499T365 477T347 460T324 454Q309 455 307 465T309 487T325 510T346 521Q352 521 354 516Q358 510 355 502Q352
491 342 483T320 472Q321 466 325 466T333 467T342 472T348 477Q360 487 365 499T376 525Q377 526 376 529T372 537T368 545T367 553Q372 566 384 564Q390 564 392 558Q394 553 393 547T392 535Q402 536 406 535T404 521Q400 513 396 505T390 487Q390 482 393 482Q403
482 410 492T422 514T433 539T446 556Q450 557 454 555Q455 553 455 549Q453 543 450 539T449 527Q452 521 455 515T458 501H459Q469 513 475 530T497 556Q515 563 521 546Q526 539 524 534T523 520Q527 521 530 525Q538 531 539 542T543 562Q545 564 548 564T554
564Q559 563 558 558V557Q563 562 570 565Q575 568 578 566T584 559Q586 553 585 548T581 538T576 527T574 515Q581 521 586 528T595 542T603 556T616 568Q626 573 641 568Q643 571 649 572T654 565Q652 556 647 546T642 526Q642 519 646 525Q656 535 661 548T670
575T682 601T703 622Q710 626 715 618Q721 607 717 595T705 574Q698 565 684 553T672 527Q674 519 683 521Q690 524 693 530T701 543Q703 544 707 544Q711 544 711 539L709 533Q701 514 683 507Q671 500 662 514Q660 516 660 519ZM878 485Q854 508 824 522T762
545Q761 517 761 490T758 435L757 436V433Q744 432 726 431T689 427T656 416T632 397Q628 394 634 393Q647 388 662 387T692 385T723 385T752 384Q766 383 780 382T808 375Q822 371 833 364T857 350Q857 380 847 402T807 435Q824 450 841 463T878 485ZM156 445Q127
437 99 426T44 400Q77 382 97 347Q98 346 95 340T88 326T81 312T76 302Q64 280 56 256Q81 269 107 275T160 285T213 292T266 304Q257 313 243 316T213 320T181 320T154 317Q154 349 154 381T156 445ZM385 166Q385 171 381 177H409Q423 171 434 153T451 120Q451
132 452 149T446 177H482Q476 172 476 165T477 151V31Q477 24 477 16T482 2H381Q386 9 387 19T389 40T387 63T385 82V166ZM334 177Q352 177 360 167T372 143T374 112T373 82V43Q373 20 360 11T325 2Q306 2 298 12T286 36T284 67T285 97Q285 107 285 116T285 135Q285
159 298 168T334 177ZM281 551Q287 551 291 550Q299 549 304 543T311 527Q314 506 300 487T267 456Q258 450 254 441T245 422T235 403T218 389Q207 381 192 384Q186 386 182 391T179 403Q179 414 186 421T204 431Q207 432 211 430T214 423Q208 419 203 419Q197
417 195 411T196 400Q198 398 200 398T204 396Q214 395 220 401T231 418T238 438T242 455Q229 442 212 438Q199 436 191 444Q183 448 183 462Q183 475 189 487Q202 517 231 535Q237 538 243 541T257 546Q262 548 267 552T278 557Q284 557 281 551ZM384 294Q382
301 379 312T375 336T376 358T386 375Q391 380 401 380T416 372Q419 364 415 362T406 359T398 363T398 371Q390 367 390 357T392 336T401 313T408 296Q414 278 416 254T406 212Q401 205 390 203T365 200T339 201T319 203Q325 210 326 221T328 244T326 268T324 289V350Q324
358 324 365T319 379H356Q349 373 350 363T351 345V276Q351 268 350 252T355 229Q362 218 373 225T387 241Q391 254 389 267T384 294ZM590 317Q588 313 583 303T573 281T567 259T572 245Q569 251 574 251T584 250T591 243T583 234Q571 229 566 238T562 256Q562
264 565 272T569 287T567 298T553 301V225Q561 225 573 224T595 229Q592 222 591 216T588 203H520Q525 209 525 215T526 229V350Q526 357 526 365T520 379H582Q594 367 594 350T590 317ZM502 374Q502 367 505 360T512 345T515 330T507 317Q500 312 491 312T480
323Q480 329 483 331T491 334T498 332T500 325Q507 326 507 331T503 341T494 351T485 357Q478 359 469 358T457 348Q451 336 455 327T467 311T485 298T501 284Q508 274 512 261T514 236T504 214T481 203Q468 202 455 202T428 203Q432 205 431 212T427 229T423 247T426
263Q431 269 442 269T455 259Q455 254 452 252T444 249T437 251T434 258Q428 256 428 251T431 241T440 232T448 226Q455 224 465 224T480 229Q490 239 488 249T479 267T461 283T446 295Q437 303 431 315T425 341T431 364T453 378Q466 381 479 380T505 379L502 374ZM146
-65L125 -174H104Q101 -156 99 -138T94 -102Q92 -120 89 -138T82 -174H61L42 -65H65Q67 -85 68 -105T74 -146Q76 -126 79 -106T86 -65H104L116 -146Q118 -126 120 -106T125 -65H146ZM252 -65L231 -174H211Q207 -156 205 -138T200 -102Q198 -120 195 -138T189 -174H167L149
-65H171Q173 -85 175 -105T180 -146Q182 -126 185 -106T192 -65H211L222 -146Q224 -126 226 -106T231 -65H252ZM358 -65L338 -174H317Q313 -156 311 -138T306 -102Q304 -120 301 -138T295 -174H274L255 -65H277Q279 -85 281 -105T286 -146Q288 -126 291 -106T298
-65H317L329 -146Q330 -126 332 -106T338 -65H358ZM546 -122Q553 -125 556 -131T561 -145T564 -160T568 -174H543Q540 -168 539 -161T536 -147T530 -136T517 -132V-174H491V-66Q505 -64 522 -63T553 -70Q568 -81 564 -98T546 -122ZM748 -174H723Q713 -155 705 -136T688
-98Q689 -117 689 -136T689 -174H666V-65H694L727 -139Q725 -120 725 -102T725 -65H748V-174ZM487 2Q493 9 494 20T496 43T494 66T492 86V148Q492 156 492 162T487 177H524Q519 172 518 162T516 142T518 121T519 103V22H570Q581 22 597 21T624 27Q622 23 621 13T614
2H487ZM478 -174H453L446 -149H420L415 -174H389L418 -65H449L478 -174ZM848 -170Q828 -178 810 -175T779 -160T763 -131T770 -92Q776 -78 789 -71T820 -64Q821 -64 825 -64T833 -65T841 -67T845 -69L841 -89Q828 -83 818 -85T800 -94T790 -112T791 -135Q799 -158
821 -155Q826 -154 825 -145T824 -131H811V-111H848V-170ZM573 90Q567 101 563 112T554 135Q549 146 547 157T536 177H574Q568 163 575 145T588 115Q594 129 599 145T599 177H638Q627 171 625 158T620 135Q617 125 609 112T600 88Q600 77 599 61T605 35H568Q577
44 575 61T573 90ZM347 135Q347 143 342 148T331 156T320 155T312 144Q311 137 311 130T312 116Q312 98 312 80T312 43Q312 35 316 30T327 23T338 23T346 35Q347 41 347 48T347 63V135ZM451 17Q449 48 441 79T412 136V23Q412 16 417 12T430 6T443 7T451 17ZM262
536Q248 533 237 525T215 506Q212 503 208 494T200 475T198 458T209 450Q224 450 233 459T248 482T257 511T262 536ZM582 -65H608V-174H582V-65ZM259 464Q266 466 273 473T286 490T293 510T293 527Q290 538 277 538Q270 520 267 502T259 464ZM553 323Q563 323 575
324T589 340Q589 348 586 351T577 356T565 358T553 358V323ZM635 553Q634 557 633 559T627 560Q619 556 615 549T608 533Q606 528 608 520T619 518Q625 524 629 534T635 553ZM486 510Q491 503 498 507Q506 509 509 517T511 534Q510 539 507 542T496 540Q486 533
484 517L486 510ZM349 -160Q349 -153 353 -149T364 -145T374 -149T379 -160Q379 -168 375 -171T364 -175T354 -172T349 -160ZM622 -160Q622 -153 626 -149T637 -145T647 -149T652 -160Q652 -168 648 -171T637 -175T627 -172T622 -160ZM523 -113Q532 -113 536 -108T539
-97T534 -87T520 -83Q515 -84 516 -96T517 -113H523ZM443 -130Q441 -119 439 -108T433 -85L423 -130H443ZM437 518Q434 514 430 507T427 495Q429 489 435 490T442 497Q443 506 437 518ZM320 482Q326 481 334 489T343 503Q345 507 342 509T336 508Q331 503 327 496T320
482ZM704 607Q686 589 680 565Q688 575 695 584T705 607H704ZM383 539Q383 543 383 545T383 552Q380 552 379 549Q378 545 381 539H383Z" />
<glyph unicode="2" glyph-name="two" horiz-adv-x="911" d="M17 397Q51 415 84 430T155 456Q157 456 159 466T163 488T167 511T171 527Q182 544 204 553T242 570Q285 587 329 600T419 625Q465 636 511 644T604 656Q620 658 643 660T689 662T734 656T769 637Q770
635 768 623T765 607L762 559Q762 557 764 557Q802 546 838 529T899 478V477Q891 479 881 476T861 466T843 452T829 439Q844 431 853 416T867 384T870 348T864 315Q856 336 840 347T803 364T762 371T721 374Q699 376 675 375T630 382Q622 385 619 394T616 415T616
438T619 456Q529 449 442 429T270 379Q266 378 266 376Q267 371 270 360T275 335T278 311T275 297Q264 288 247 287T215 283Q196 280 177 277T138 271Q121 267 106 263T75 252Q68 248 61 246T47 238Q43 234 38 228T30 220Q35 237 42 253T55 284Q56 287 61 296T72
316T81 335T84 346Q72 363 56 379T17 397ZM747 457Q750 484 750 512T752 566Q752 580 753 594T756 622Q757 629 753 633T743 639T730 643T717 645Q659 654 597 646T477 625Q414 612 353 596T231 553Q220 547 209 541T187 527Q177 519 175 503T171 476Q167 444 167
412T167 346Q171 346 178 349T192 356T205 365T217 372Q235 380 253 386T291 400Q329 411 367 421T445 440Q483 448 520 455T597 466Q632 470 672 471T747 457ZM660 519Q655 515 652 512T643 506Q638 504 635 506T629 510Q627 508 623 506T615 503Q600 500 594
513V514Q590 509 586 506T574 500Q567 496 562 506Q559 512 560 517T564 528T569 538T570 550Q561 546 558 541T552 528T549 514T545 500Q542 492 533 496Q529 497 529 501Q529 503 529 505T530 509Q523 507 521 507T513 502Q508 497 501 493T486 489Q481 490 478
493T473 500Q465 492 454 484T429 478Q421 479 417 487Q405 473 392 469Q378 463 376 479Q374 492 380 500T391 519Q392 521 390 521T386 520Q382 510 377 499T365 477T347 460T324 454Q309 455 307 465T309 487T325 510T346 521Q352 521 354 516Q358 510 355 502Q352
491 342 483T320 472Q321 466 325 466T333 467T342 472T348 477Q360 487 365 499T376 525Q377 526 376 529T372 537T368 545T367 553Q372 566 384 564Q390 564 392 558Q394 553 393 547T392 535Q402 536 406 535T404 521Q400 513 396 505T390 487Q390 482 393 482Q403
482 410 492T422 514T433 539T446 556Q450 557 454 555Q455 553 455 549Q453 543 450 539T449 527Q452 521 455 515T458 501H459Q469 513 475 530T497 556Q515 563 521 546Q526 539 524 534T523 520Q527 521 530 525Q538 531 539 542T543 562Q545 564 548 564T554
564Q559 563 558 558V557Q563 562 570 565Q575 568 578 566T584 559Q586 553 585 548T581 538T576 527T574 515Q581 521 586 528T595 542T603 556T616 568Q626 573 641 568Q643 571 649 572T654 565Q652 556 647 546T642 526Q642 519 646 525Q656 535 661 548T670
575T682 601T703 622Q710 626 715 618Q721 607 717 595T705 574Q698 565 684 553T672 527Q674 519 683 521Q690 524 693 530T701 543Q703 544 707 544Q711 544 711 539L709 533Q701 514 683 507Q671 500 662 514Q660 516 660 519ZM878 485Q854 508 824 522T762
545Q761 517 761 490T758 435L757 436V433Q744 432 726 431T689 427T656 416T632 397Q628 394 634 393Q647 388 662 387T692 385T723 385T752 384Q766 383 780 382T808 375Q822 371 833 364T857 350Q857 380 847 402T807 435Q824 450 841 463T878 485ZM156 445Q127
437 99 426T44 400Q77 382 97 347Q98 346 95 340T88 326T81 312T76 302Q64 280 56 256Q81 269 107 275T160 285T213 292T266 304Q257 313 243 316T213 320T181 320T154 317Q154 349 154 381T156 445ZM385 166Q385 171 381 177H409Q423 171 434 153T451 120Q451
132 452 149T446 177H482Q476 172 476 165T477 151V31Q477 24 477 16T482 2H381Q386 9 387 19T389 40T387 63T385 82V166ZM334 177Q352 177 360 167T372 143T374 112T373 82V43Q373 20 360 11T325 2Q306 2 298 12T286 36T284 67T285 97Q285 107 285 116T285 135Q285
159 298 168T334 177ZM281 551Q287 551 291 550Q299 549 304 543T311 527Q314 506 300 487T267 456Q258 450 254 441T245 422T235 403T218 389Q207 381 192 384Q186 386 182 391T179 403Q179 414 186 421T204 431Q207 432 211 430T214 423Q208 419 203 419Q197
417 195 411T196 400Q198 398 200 398T204 396Q214 395 220 401T231 418T238 438T242 455Q229 442 212 438Q199 436 191 444Q183 448 183 462Q183 475 189 487Q202 517 231 535Q237 538 243 541T257 546Q262 548 267 552T278 557Q284 557 281 551ZM384 294Q382
301 379 312T375 336T376 358T386 375Q391 380 401 380T416 372Q419 364 415 362T406 359T398 363T398 371Q390 367 390 357T392 336T401 313T408 296Q414 278 416 254T406 212Q401 205 390 203T365 200T339 201T319 203Q325 210 326 221T328 244T326 268T324 289V350Q324
358 324 365T319 379H356Q349 373 350 363T351 345V276Q351 268 350 252T355 229Q362 218 373 225T387 241Q391 254 389 267T384 294ZM590 317Q588 313 583 303T573 281T567 259T572 245Q569 251 574 251T584 250T591 243T583 234Q571 229 566 238T562 256Q562
264 565 272T569 287T567 298T553 301V225Q561 225 573 224T595 229Q592 222 591 216T588 203H520Q525 209 525 215T526 229V350Q526 357 526 365T520 379H582Q594 367 594 350T590 317ZM502 374Q502 367 505 360T512 345T515 330T507 317Q500 312 491 312T480
323Q480 329 483 331T491 334T498 332T500 325Q507 326 507 331T503 341T494 351T485 357Q478 359 469 358T457 348Q451 336 455 327T467 311T485 298T501 284Q508 274 512 261T514 236T504 214T481 203Q468 202 455 202T428 203Q432 205 431 212T427 229T423 247T426
263Q431 269 442 269T455 259Q455 254 452 252T444 249T437 251T434 258Q428 256 428 251T431 241T440 232T448 226Q455 224 465 224T480 229Q490 239 488 249T479 267T461 283T446 295Q437 303 431 315T425 341T431 364T453 378Q466 381 479 380T505 379L502 374ZM146
-65L125 -174H104Q101 -156 99 -138T94 -102Q92 -120 89 -138T82 -174H61L42 -65H65Q67 -85 68 -105T74 -146Q76 -126 79 -106T86 -65H104L116 -146Q118 -126 120 -106T125 -65H146ZM252 -65L231 -174H211Q207 -156 205 -138T200 -102Q198 -120 195 -138T189 -174H167L149
-65H171Q173 -85 175 -105T180 -146Q182 -126 185 -106T192 -65H211L222 -146Q224 -126 226 -106T231 -65H252ZM358 -65L338 -174H317Q313 -156 311 -138T306 -102Q304 -120 301 -138T295 -174H274L255 -65H277Q279 -85 281 -105T286 -146Q288 -126 291 -106T298
-65H317L329 -146Q330 -126 332 -106T338 -65H358ZM546 -122Q553 -125 556 -131T561 -145T564 -160T568 -174H543Q540 -168 539 -161T536 -147T530 -136T517 -132V-174H491V-66Q505 -64 522 -63T553 -70Q568 -81 564 -98T546 -122ZM748 -174H723Q713 -155 705 -136T688
-98Q689 -117 689 -136T689 -174H666V-65H694L727 -139Q725 -120 725 -102T725 -65H748V-174ZM487 2Q493 9 494 20T496 43T494 66T492 86V148Q492 156 492 162T487 177H524Q519 172 518 162T516 142T518 121T519 103V22H570Q581 22 597 21T624 27Q622 23 621 13T614
2H487ZM478 -174H453L446 -149H420L415 -174H389L418 -65H449L478 -174ZM848 -170Q828 -178 810 -175T779 -160T763 -131T770 -92Q776 -78 789 -71T820 -64Q821 -64 825 -64T833 -65T841 -67T845 -69L841 -89Q828 -83 818 -85T800 -94T790 -112T791 -135Q799 -158
821 -155Q826 -154 825 -145T824 -131H811V-111H848V-170ZM573 90Q567 101 563 112T554 135Q549 146 547 157T536 177H574Q568 163 575 145T588 115Q594 129 599 145T599 177H638Q627 171 625 158T620 135Q617 125 609 112T600 88Q600 77 599 61T605 35H568Q577
44 575 61T573 90ZM347 135Q347 143 342 148T331 156T320 155T312 144Q311 137 311 130T312 116Q312 98 312 80T312 43Q312 35 316 30T327 23T338 23T346 35Q347 41 347 48T347 63V135ZM451 17Q449 48 441 79T412 136V23Q412 16 417 12T430 6T443 7T451 17ZM262
536Q248 533 237 525T215 506Q212 503 208 494T200 475T198 458T209 450Q224 450 233 459T248 482T257 511T262 536ZM582 -65H608V-174H582V-65ZM259 464Q266 466 273 473T286 490T293 510T293 527Q290 538 277 538Q270 520 267 502T259 464ZM553 323Q563 323 575
324T589 340Q589 348 586 351T577 356T565 358T553 358V323ZM635 553Q634 557 633 559T627 560Q619 556 615 549T608 533Q606 528 608 520T619 518Q625 524 629 534T635 553ZM486 510Q491 503 498 507Q506 509 509 517T511 534Q510 539 507 542T496 540Q486 533
484 517L486 510ZM349 -160Q349 -153 353 -149T364 -145T374 -149T379 -160Q379 -168 375 -171T364 -175T354 -172T349 -160ZM622 -160Q622 -153 626 -149T637 -145T647 -149T652 -160Q652 -168 648 -171T637 -175T627 -172T622 -160ZM523 -113Q532 -113 536 -108T539
-97T534 -87T520 -83Q515 -84 516 -96T517 -113H523ZM443 -130Q441 -119 439 -108T433 -85L423 -130H443ZM437 518Q434 514 430 507T427 495Q429 489 435 490T442 497Q443 506 437 518ZM320 482Q326 481 334 489T343 503Q345 507 342 509T336 508Q331 503 327 496T320
482ZM704 607Q686 589 680 565Q688 575 695 584T705 607H704ZM383 539Q383 543 383 545T383 552Q380 552 379 549Q378 545 381 539H383Z" />
<glyph unicode="3" glyph-name="three" horiz-adv-x="911" d="M17 397Q51 415 84 430T155 456Q157 456 159 466T163 488T167 511T171 527Q182 544 204 553T242 570Q285 587 329 600T419 625Q465 636 511 644T604 656Q620 658 643 660T689 662T734 656T769 637Q770
635 768 623T765 607L762 559Q762 557 764 557Q802 546 838 529T899 478V477Q891 479 881 476T861 466T843 452T829 439Q844 431 853 416T867 384T870 348T864 315Q856 336 840 347T803 364T762 371T721 374Q699 376 675 375T630 382Q622 385 619 394T616 415T616
438T619 456Q529 449 442 429T270 379Q266 378 266 376Q267 371 270 360T275 335T278 311T275 297Q264 288 247 287T215 283Q196 280 177 277T138 271Q121 267 106 263T75 252Q68 248 61 246T47 238Q43 234 38 228T30 220Q35 237 42 253T55 284Q56 287 61 296T72
316T81 335T84 346Q72 363 56 379T17 397ZM747 457Q750 484 750 512T752 566Q752 580 753 594T756 622Q757 629 753 633T743 639T730 643T717 645Q659 654 597 646T477 625Q414 612 353 596T231 553Q220 547 209 541T187 527Q177 519 175 503T171 476Q167 444 167
412T167 346Q171 346 178 349T192 356T205 365T217 372Q235 380 253 386T291 400Q329 411 367 421T445 440Q483 448 520 455T597 466Q632 470 672 471T747 457ZM660 519Q655 515 652 512T643 506Q638 504 635 506T629 510Q627 508 623 506T615 503Q600 500 594
513V514Q590 509 586 506T574 500Q567 496 562 506Q559 512 560 517T564 528T569 538T570 550Q561 546 558 541T552 528T549 514T545 500Q542 492 533 496Q529 497 529 501Q529 503 529 505T530 509Q523 507 521 507T513 502Q508 497 501 493T486 489Q481 490 478
493T473 500Q465 492 454 484T429 478Q421 479 417 487Q405 473 392 469Q378 463 376 479Q374 492 380 500T391 519Q392 521 390 521T386 520Q382 510 377 499T365 477T347 460T324 454Q309 455 307 465T309 487T325 510T346 521Q352 521 354 516Q358 510 355 502Q352
491 342 483T320 472Q321 466 325 466T333 467T342 472T348 477Q360 487 365 499T376 525Q377 526 376 529T372 537T368 545T367 553Q372 566 384 564Q390 564 392 558Q394 553 393 547T392 535Q402 536 406 535T404 521Q400 513 396 505T390 487Q390 482 393 482Q403
482 410 492T422 514T433 539T446 556Q450 557 454 555Q455 553 455 549Q453 543 450 539T449 527Q452 521 455 515T458 501H459Q469 513 475 530T497 556Q515 563 521 546Q526 539 524 534T523 520Q527 521 530 525Q538 531 539 542T543 562Q545 564 548 564T554
564Q559 563 558 558V557Q563 562 570 565Q575 568 578 566T584 559Q586 553 585 548T581 538T576 527T574 515Q581 521 586 528T595 542T603 556T616 568Q626 573 641 568Q643 571 649 572T654 565Q652 556 647 546T642 526Q642 519 646 525Q656 535 661 548T670
575T682 601T703 622Q710 626 715 618Q721 607 717 595T705 574Q698 565 684 553T672 527Q674 519 683 521Q690 524 693 530T701 543Q703 544 707 544Q711 544 711 539L709 533Q701 514 683 507Q671 500 662 514Q660 516 660 519ZM878 485Q854 508 824 522T762
545Q761 517 761 490T758 435L757 436V433Q744 432 726 431T689 427T656 416T632 397Q628 394 634 393Q647 388 662 387T692 385T723 385T752 384Q766 383 780 382T808 375Q822 371 833 364T857 350Q857 380 847 402T807 435Q824 450 841 463T878 485ZM156 445Q127
437 99 426T44 400Q77 382 97 347Q98 346 95 340T88 326T81 312T76 302Q64 280 56 256Q81 269 107 275T160 285T213 292T266 304Q257 313 243 316T213 320T181 320T154 317Q154 349 154 381T156 445ZM385 166Q385 171 381 177H409Q423 171 434 153T451 120Q451
132 452 149T446 177H482Q476 172 476 165T477 151V31Q477 24 477 16T482 2H381Q386 9 387 19T389 40T387 63T385 82V166ZM334 177Q352 177 360 167T372 143T374 112T373 82V43Q373 20 360 11T325 2Q306 2 298 12T286 36T284 67T285 97Q285 107 285 116T285 135Q285
159 298 168T334 177ZM281 551Q287 551 291 550Q299 549 304 543T311 527Q314 506 300 487T267 456Q258 450 254 441T245 422T235 403T218 389Q207 381 192 384Q186 386 182 391T179 403Q179 414 186 421T204 431Q207 432 211 430T214 423Q208 419 203 419Q197
417 195 411T196 400Q198 398 200 398T204 396Q214 395 220 401T231 418T238 438T242 455Q229 442 212 438Q199 436 191 444Q183 448 183 462Q183 475 189 487Q202 517 231 535Q237 538 243 541T257 546Q262 548 267 552T278 557Q284 557 281 551ZM384 294Q382
301 379 312T375 336T376 358T386 375Q391 380 401 380T416 372Q419 364 415 362T406 359T398 363T398 371Q390 367 390 357T392 336T401 313T408 296Q414 278 416 254T406 212Q401 205 390 203T365 200T339 201T319 203Q325 210 326 221T328 244T326 268T324 289V350Q324
358 324 365T319 379H356Q349 373 350 363T351 345V276Q351 268 350 252T355 229Q362 218 373 225T387 241Q391 254 389 267T384 294ZM590 317Q588 313 583 303T573 281T567 259T572 245Q569 251 574 251T584 250T591 243T583 234Q571 229 566 238T562 256Q562
264 565 272T569 287T567 298T553 301V225Q561 225 573 224T595 229Q592 222 591 216T588 203H520Q525 209 525 215T526 229V350Q526 357 526 365T520 379H582Q594 367 594 350T590 317ZM502 374Q502 367 505 360T512 345T515 330T507 317Q500 312 491 312T480
323Q480 329 483 331T491 334T498 332T500 325Q507 326 507 331T503 341T494 351T485 357Q478 359 469 358T457 348Q451 336 455 327T467 311T485 298T501 284Q508 274 512 261T514 236T504 214T481 203Q468 202 455 202T428 203Q432 205 431 212T427 229T423 247T426
263Q431 269 442 269T455 259Q455 254 452 252T444 249T437 251T434 258Q428 256 428 251T431 241T440 232T448 226Q455 224 465 224T480 229Q490 239 488 249T479 267T461 283T446 295Q437 303 431 315T425 341T431 364T453 378Q466 381 479 380T505 379L502 374ZM146
-65L125 -174H104Q101 -156 99 -138T94 -102Q92 -120 89 -138T82 -174H61L42 -65H65Q67 -85 68 -105T74 -146Q76 -126 79 -106T86 -65H104L116 -146Q118 -126 120 -106T125 -65H146ZM252 -65L231 -174H211Q207 -156 205 -138T200 -102Q198 -120 195 -138T189 -174H167L149
-65H171Q173 -85 175 -105T180 -146Q182 -126 185 -106T192 -65H211L222 -146Q224 -126 226 -106T231 -65H252ZM358 -65L338 -174H317Q313 -156 311 -138T306 -102Q304 -120 301 -138T295 -174H274L255 -65H277Q279 -85 281 -105T286 -146Q288 -126 291 -106T298
-65H317L329 -146Q330 -126 332 -106T338 -65H358ZM546 -122Q553 -125 556 -131T561 -145T564 -160T568 -174H543Q540 -168 539 -161T536 -147T530 -136T517 -132V-174H491V-66Q505 -64 522 -63T553 -70Q568 -81 564 -98T546 -122ZM748 -174H723Q713 -155 705 -136T688
-98Q689 -117 689 -136T689 -174H666V-65H694L727 -139Q725 -120 725 -102T725 -65H748V-174ZM487 2Q493 9 494 20T496 43T494 66T492 86V148Q492 156 492 162T487 177H524Q519 172 518 162T516 142T518 121T519 103V22H570Q581 22 597 21T624 27Q622 23 621 13T614
2H487ZM478 -174H453L446 -149H420L415 -174H389L418 -65H449L478 -174ZM848 -170Q828 -178 810 -175T779 -160T763 -131T770 -92Q776 -78 789 -71T820 -64Q821 -64 825 -64T833 -65T841 -67T845 -69L841 -89Q828 -83 818 -85T800 -94T790 -112T791 -135Q799 -158
821 -155Q826 -154 825 -145T824 -131H811V-111H848V-170ZM573 90Q567 101 563 112T554 135Q549 146 547 157T536 177H574Q568 163 575 145T588 115Q594 129 599 145T599 177H638Q627 171 625 158T620 135Q617 125 609 112T600 88Q600 77 599 61T605 35H568Q577
44 575 61T573 90ZM347 135Q347 143 342 148T331 156T320 155T312 144Q311 137 311 130T312 116Q312 98 312 80T312 43Q312 35 316 30T327 23T338 23T346 35Q347 41 347 48T347 63V135ZM451 17Q449 48 441 79T412 136V23Q412 16 417 12T430 6T443 7T451 17ZM262
536Q248 533 237 525T215 506Q212 503 208 494T200 475T198 458T209 450Q224 450 233 459T248 482T257 511T262 536ZM582 -65H608V-174H582V-65ZM259 464Q266 466 273 473T286 490T293 510T293 527Q290 538 277 538Q270 520 267 502T259 464ZM553 323Q563 323 575
324T589 340Q589 348 586 351T577 356T565 358T553 358V323ZM635 553Q634 557 633 559T627 560Q619 556 615 549T608 533Q606 528 608 520T619 518Q625 524 629 534T635 553ZM486 510Q491 503 498 507Q506 509 509 517T511 534Q510 539 507 542T496 540Q486 533
484 517L486 510ZM349 -160Q349 -153 353 -149T364 -145T374 -149T379 -160Q379 -168 375 -171T364 -175T354 -172T349 -160ZM622 -160Q622 -153 626 -149T637 -145T647 -149T652 -160Q652 -168 648 -171T637 -175T627 -172T622 -160ZM523 -113Q532 -113 536 -108T539
-97T534 -87T520 -83Q515 -84 516 -96T517 -113H523ZM443 -130Q441 -119 439 -108T433 -85L423 -130H443ZM437 518Q434 514 430 507T427 495Q429 489 435 490T442 497Q443 506 437 518ZM320 482Q326 481 334 489T343 503Q345 507 342 509T336 508Q331 503 327 496T320
482ZM704 607Q686 589 680 565Q688 575 695 584T705 607H704ZM383 539Q383 543 383 545T383 552Q380 552 379 549Q378 545 381 539H383Z" />
<glyph unicode="4" glyph-name="four" horiz-adv-x="911" d="M17 397Q51 415 84 430T155 456Q157 456 159 466T163 488T167 511T171 527Q182 544 204 553T242 570Q285 587 329 600T419 625Q465 636 511 644T604 656Q620 658 643 660T689 662T734 656T769 637Q770
635 768 623T765 607L762 559Q762 557 764 557Q802 546 838 529T899 478V477Q891 479 881 476T861 466T843 452T829 439Q844 431 853 416T867 384T870 348T864 315Q856 336 840 347T803 364T762 371T721 374Q699 376 675 375T630 382Q622 385 619 394T616 415T616
438T619 456Q529 449 442 429T270 379Q266 378 266 376Q267 371 270 360T275 335T278 311T275 297Q264 288 247 287T215 283Q196 280 177 277T138 271Q121 267 106 263T75 252Q68 248 61 246T47 238Q43 234 38 228T30 220Q35 237 42 253T55 284Q56 287 61 296T72
316T81 335T84 346Q72 363 56 379T17 397ZM747 457Q750 484 750 512T752 566Q752 580 753 594T756 622Q757 629 753 633T743 639T730 643T717 645Q659 654 597 646T477 625Q414 612 353 596T231 553Q220 547 209 541T187 527Q177 519 175 503T171 476Q167 444 167
412T167 346Q171 346 178 349T192 356T205 365T217 372Q235 380 253 386T291 400Q329 411 367 421T445 440Q483 448 520 455T597 466Q632 470 672 471T747 457ZM660 519Q655 515 652 512T643 506Q638 504 635 506T629 510Q627 508 623 506T615 503Q600 500 594
513V514Q590 509 586 506T574 500Q567 496 562 506Q559 512 560 517T564 528T569 538T570 550Q561 546 558 541T552 528T549 514T545 500Q542 492 533 496Q529 497 529 501Q529 503 529 505T530 509Q523 507 521 507T513 502Q508 497 501 493T486 489Q481 490 478
493T473 500Q465 492 454 484T429 478Q421 479 417 487Q405 473 392 469Q378 463 376 479Q374 492 380 500T391 519Q392 521 390 521T386 520Q382 510 377 499T365 477T347 460T324 454Q309 455 307 465T309 487T325 510T346 521Q352 521 354 516Q358 510 355 502Q352
491 342 483T320 472Q321 466 325 466T333 467T342 472T348 477Q360 487 365 499T376 525Q377 526 376 529T372 537T368 545T367 553Q372 566 384 564Q390 564 392 558Q394 553 393 547T392 535Q402 536 406 535T404 521Q400 513 396 505T390 487Q390 482 393 482Q403
482 410 492T422 514T433 539T446 556Q450 557 454 555Q455 553 455 549Q453 543 450 539T449 527Q452 521 455 515T458 501H459Q469 513 475 530T497 556Q515 563 521 546Q526 539 524 534T523 520Q527 521 530 525Q538 531 539 542T543 562Q545 564 548 564T554
564Q559 563 558 558V557Q563 562 570 565Q575 568 578 566T584 559Q586 553 585 548T581 538T576 527T574 515Q581 521 586 528T595 542T603 556T616 568Q626 573 641 568Q643 571 649 572T654 565Q652 556 647 546T642 526Q642 519 646 525Q656 535 661 548T670
575T682 601T703 622Q710 626 715 618Q721 607 717 595T705 574Q698 565 684 553T672 527Q674 519 683 521Q690 524 693 530T701 543Q703 544 707 544Q711 544 711 539L709 533Q701 514 683 507Q671 500 662 514Q660 516 660 519ZM878 485Q854 508 824 522T762
545Q761 517 761 490T758 435L757 436V433Q744 432 726 431T689 427T656 416T632 397Q628 394 634 393Q647 388 662 387T692 385T723 385T752 384Q766 383 780 382T808 375Q822 371 833 364T857 350Q857 380 847 402T807 435Q824 450 841 463T878 485ZM156 445Q127
437 99 426T44 400Q77 382 97 347Q98 346 95 340T88 326T81 312T76 302Q64 280 56 256Q81 269 107 275T160 285T213 292T266 304Q257 313 243 316T213 320T181 320T154 317Q154 349 154 381T156 445ZM385 166Q385 171 381 177H409Q423 171 434 153T451 120Q451
132 452 149T446 177H482Q476 172 476 165T477 151V31Q477 24 477 16T482 2H381Q386 9 387 19T389 40T387 63T385 82V166ZM334 177Q352 177 360 167T372 143T374 112T373 82V43Q373 20 360 11T325 2Q306 2 298 12T286 36T284 67T285 97Q285 107 285 116T285 135Q285
159 298 168T334 177ZM281 551Q287 551 291 550Q299 549 304 543T311 527Q314 506 300 487T267 456Q258 450 254 441T245 422T235 403T218 389Q207 381 192 384Q186 386 182 391T179 403Q179 414 186 421T204 431Q207 432 211 430T214 423Q208 419 203 419Q197
417 195 411T196 400Q198 398 200 398T204 396Q214 395 220 401T231 418T238 438T242 455Q229 442 212 438Q199 436 191 444Q183 448 183 462Q183 475 189 487Q202 517 231 535Q237 538 243 541T257 546Q262 548 267 552T278 557Q284 557 281 551ZM384 294Q382
301 379 312T375 336T376 358T386 375Q391 380 401 380T416 372Q419 364 415 362T406 359T398 363T398 371Q390 367 390 357T392 336T401 313T408 296Q414 278 416 254T406 212Q401 205 390 203T365 200T339 201T319 203Q325 210 326 221T328 244T326 268T324 289V350Q324
358 324 365T319 379H356Q349 373 350 363T351 345V276Q351 268 350 252T355 229Q362 218 373 225T387 241Q391 254 389 267T384 294ZM590 317Q588 313 583 303T573 281T567 259T572 245Q569 251 574 251T584 250T591 243T583 234Q571 229 566 238T562 256Q562
264 565 272T569 287T567 298T553 301V225Q561 225 573 224T595 229Q592 222 591 216T588 203H520Q525 209 525 215T526 229V350Q526 357 526 365T520 379H582Q594 367 594 350T590 317ZM502 374Q502 367 505 360T512 345T515 330T507 317Q500 312 491 312T480
323Q480 329 483 331T491 334T498 332T500 325Q507 326 507 331T503 341T494 351T485 357Q478 359 469 358T457 348Q451 336 455 327T467 311T485 298T501 284Q508 274 512 261T514 236T504 214T481 203Q468 202 455 202T428 203Q432 205 431 212T427 229T423 247T426
263Q431 269 442 269T455 259Q455 254 452 252T444 249T437 251T434 258Q428 256 428 251T431 241T440 232T448 226Q455 224 465 224T480 229Q490 239 488 249T479 267T461 283T446 295Q437 303 431 315T425 341T431 364T453 378Q466 381 479 380T505 379L502 374ZM146
-65L125 -174H104Q101 -156 99 -138T94 -102Q92 -120 89 -138T82 -174H61L42 -65H65Q67 -85 68 -105T74 -146Q76 -126 79 -106T86 -65H104L116 -146Q118 -126 120 -106T125 -65H146ZM252 -65L231 -174H211Q207 -156 205 -138T200 -102Q198 -120 195 -138T189 -174H167L149
-65H171Q173 -85 175 -105T180 -146Q182 -126 185 -106T192 -65H211L222 -146Q224 -126 226 -106T231 -65H252ZM358 -65L338 -174H317Q313 -156 311 -138T306 -102Q304 -120 301 -138T295 -174H274L255 -65H277Q279 -85 281 -105T286 -146Q288 -126 291 -106T298
-65H317L329 -146Q330 -126 332 -106T338 -65H358ZM546 -122Q553 -125 556 -131T561 -145T564 -160T568 -174H543Q540 -168 539 -161T536 -147T530 -136T517 -132V-174H491V-66Q505 -64 522 -63T553 -70Q568 -81 564 -98T546 -122ZM748 -174H723Q713 -155 705 -136T688
-98Q689 -117 689 -136T689 -174H666V-65H694L727 -139Q725 -120 725 -102T725 -65H748V-174ZM487 2Q493 9 494 20T496 43T494 66T492 86V148Q492 156 492 162T487 177H524Q519 172 518 162T516 142T518 121T519 103V22H570Q581 22 597 21T624 27Q622 23 621 13T614
2H487ZM478 -174H453L446 -149H420L415 -174H389L418 -65H449L478 -174ZM848 -170Q828 -178 810 -175T779 -160T763 -131T770 -92Q776 -78 789 -71T820 -64Q821 -64 825 -64T833 -65T841 -67T845 -69L841 -89Q828 -83 818 -85T800 -94T790 -112T791 -135Q799 -158
821 -155Q826 -154 825 -145T824 -131H811V-111H848V-170ZM573 90Q567 101 563 112T554 135Q549 146 547 157T536 177H574Q568 163 575 145T588 115Q594 129 599 145T599 177H638Q627 171 625 158T620 135Q617 125 609 112T600 88Q600 77 599 61T605 35H568Q577
44 575 61T573 90ZM347 135Q347 143 342 148T331 156T320 155T312 144Q311 137 311 130T312 116Q312 98 312 80T312 43Q312 35 316 30T327 23T338 23T346 35Q347 41 347 48T347 63V135ZM451 17Q449 48 441 79T412 136V23Q412 16 417 12T430 6T443 7T451 17ZM262
536Q248 533 237 525T215 506Q212 503 208 494T200 475T198 458T209 450Q224 450 233 459T248 482T257 511T262 536ZM582 -65H608V-174H582V-65ZM259 464Q266 466 273 473T286 490T293 510T293 527Q290 538 277 538Q270 520 267 502T259 464ZM553 323Q563 323 575
324T589 340Q589 348 586 351T577 356T565 358T553 358V323ZM635 553Q634 557 633 559T627 560Q619 556 615 549T608 533Q606 528 608 520T619 518Q625 524 629 534T635 553ZM486 510Q491 503 498 507Q506 509 509 517T511 534Q510 539 507 542T496 540Q486 533
484 517L486 510ZM349 -160Q349 -153 353 -149T364 -145T374 -149T379 -160Q379 -168 375 -171T364 -175T354 -172T349 -160ZM622 -160Q622 -153 626 -149T637 -145T647 -149T652 -160Q652 -168 648 -171T637 -175T627 -172T622 -160ZM523 -113Q532 -113 536 -108T539
-97T534 -87T520 -83Q515 -84 516 -96T517 -113H523ZM443 -130Q441 -119 439 -108T433 -85L423 -130H443ZM437 518Q434 514 430 507T427 495Q429 489 435 490T442 497Q443 506 437 518ZM320 482Q326 481 334 489T343 503Q345 507 342 509T336 508Q331 503 327 496T320
482ZM704 607Q686 589 680 565Q688 575 695 584T705 607H704ZM383 539Q383 543 383 545T383 552Q380 552 379 549Q378 545 381 539H383Z" />
<glyph unicode="5" glyph-name="five" horiz-adv-x="911" d="M17 397Q51 415 84 430T155 456Q157 456 159 466T163 488T167 511T171 527Q182 544 204 553T242 570Q285 587 329 600T419 625Q465 636 511 644T604 656Q620 658 643 660T689 662T734 656T769 637Q770
635 768 623T765 607L762 559Q762 557 764 557Q802 546 838 529T899 478V477Q891 479 881 476T861 466T843 452T829 439Q844 431 853 416T867 384T870 348T864 315Q856 336 840 347T803 364T762 371T721 374Q699 376 675 375T630 382Q622 385 619 394T616 415T616
438T619 456Q529 449 442 429T270 379Q266 378 266 376Q267 371 270 360T275 335T278 311T275 297Q264 288 247 287T215 283Q196 280 177 277T138 271Q121 267 106 263T75 252Q68 248 61 246T47 238Q43 234 38 228T30 220Q35 237 42 253T55 284Q56 287 61 296T72
316T81 335T84 346Q72 363 56 379T17 397ZM747 457Q750 484 750 512T752 566Q752 580 753 594T756 622Q757 629 753 633T743 639T730 643T717 645Q659 654 597 646T477 625Q414 612 353 596T231 553Q220 547 209 541T187 527Q177 519 175 503T171 476Q167 444 167
412T167 346Q171 346 178 349T192 356T205 365T217 372Q235 380 253 386T291 400Q329 411 367 421T445 440Q483 448 520 455T597 466Q632 470 672 471T747 457ZM660 519Q655 515 652 512T643 506Q638 504 635 506T629 510Q627 508 623 506T615 503Q600 500 594
513V514Q590 509 586 506T574 500Q567 496 562 506Q559 512 560 517T564 528T569 538T570 550Q561 546 558 541T552 528T549 514T545 500Q542 492 533 496Q529 497 529 501Q529 503 529 505T530 509Q523 507 521 507T513 502Q508 497 501 493T486 489Q481 490 478
493T473 500Q465 492 454 484T429 478Q421 479 417 487Q405 473 392 469Q378 463 376 479Q374 492 380 500T391 519Q392 521 390 521T386 520Q382 510 377 499T365 477T347 460T324 454Q309 455 307 465T309 487T325 510T346 521Q352 521 354 516Q358 510 355 502Q352
491 342 483T320 472Q321 466 325 466T333 467T342 472T348 477Q360 487 365 499T376 525Q377 526 376 529T372 537T368 545T367 553Q372 566 384 564Q390 564 392 558Q394 553 393 547T392 535Q402 536 406 535T404 521Q400 513 396 505T390 487Q390 482 393 482Q403
482 410 492T422 514T433 539T446 556Q450 557 454 555Q455 553 455 549Q453 543 450 539T449 527Q452 521 455 515T458 501H459Q469 513 475 530T497 556Q515 563 521 546Q526 539 524 534T523 520Q527 521 530 525Q538 531 539 542T543 562Q545 564 548 564T554
564Q559 563 558 558V557Q563 562 570 565Q575 568 578 566T584 559Q586 553 585 548T581 538T576 527T574 515Q581 521 586 528T595 542T603 556T616 568Q626 573 641 568Q643 571 649 572T654 565Q652 556 647 546T642 526Q642 519 646 525Q656 535 661 548T670
575T682 601T703 622Q710 626 715 618Q721 607 717 595T705 574Q698 565 684 553T672 527Q674 519 683 521Q690 524 693 530T701 543Q703 544 707 544Q711 544 711 539L709 533Q701 514 683 507Q671 500 662 514Q660 516 660 519ZM878 485Q854 508 824 522T762
545Q761 517 761 490T758 435L757 436V433Q744 432 726 431T689 427T656 416T632 397Q628 394 634 393Q647 388 662 387T692 385T723 385T752 384Q766 383 780 382T808 375Q822 371 833 364T857 350Q857 380 847 402T807 435Q824 450 841 463T878 485ZM156 445Q127
437 99 426T44 400Q77 382 97 347Q98 346 95 340T88 326T81 312T76 302Q64 280 56 256Q81 269 107 275T160 285T213 292T266 304Q257 313 243 316T213 320T181 320T154 317Q154 349 154 381T156 445ZM385 166Q385 171 381 177H409Q423 171 434 153T451 120Q451
132 452 149T446 177H482Q476 172 476 165T477 151V31Q477 24 477 16T482 2H381Q386 9 387 19T389 40T387 63T385 82V166ZM334 177Q352 177 360 167T372 143T374 112T373 82V43Q373 20 360 11T325 2Q306 2 298 12T286 36T284 67T285 97Q285 107 285 116T285 135Q285
159 298 168T334 177ZM281 551Q287 551 291 550Q299 549 304 543T311 527Q314 506 300 487T267 456Q258 450 254 441T245 422T235 403T218 389Q207 381 192 384Q186 386 182 391T179 403Q179 414 186 421T204 431Q207 432 211 430T214 423Q208 419 203 419Q197
417 195 411T196 400Q198 398 200 398T204 396Q214 395 220 401T231 418T238 438T242 455Q229 442 212 438Q199 436 191 444Q183 448 183 462Q183 475 189 487Q202 517 231 535Q237 538 243 541T257 546Q262 548 267 552T278 557Q284 557 281 551ZM384 294Q382
301 379 312T375 336T376 358T386 375Q391 380 401 380T416 372Q419 364 415 362T406 359T398 363T398 371Q390 367 390 357T392 336T401 313T408 296Q414 278 416 254T406 212Q401 205 390 203T365 200T339 201T319 203Q325 210 326 221T328 244T326 268T324 289V350Q324
358 324 365T319 379H356Q349 373 350 363T351 345V276Q351 268 350 252T355 229Q362 218 373 225T387 241Q391 254 389 267T384 294ZM590 317Q588 313 583 303T573 281T567 259T572 245Q569 251 574 251T584 250T591 243T583 234Q571 229 566 238T562 256Q562
264 565 272T569 287T567 298T553 301V225Q561 225 573 224T595 229Q592 222 591 216T588 203H520Q525 209 525 215T526 229V350Q526 357 526 365T520 379H582Q594 367 594 350T590 317ZM502 374Q502 367 505 360T512 345T515 330T507 317Q500 312 491 312T480
323Q480 329 483 331T491 334T498 332T500 325Q507 326 507 331T503 341T494 351T485 357Q478 359 469 358T457 348Q451 336 455 327T467 311T485 298T501 284Q508 274 512 261T514 236T504 214T481 203Q468 202 455 202T428 203Q432 205 431 212T427 229T423 247T426
263Q431 269 442 269T455 259Q455 254 452 252T444 249T437 251T434 258Q428 256 428 251T431 241T440 232T448 226Q455 224 465 224T480 229Q490 239 488 249T479 267T461 283T446 295Q437 303 431 315T425 341T431 364T453 378Q466 381 479 380T505 379L502 374ZM146
-65L125 -174H104Q101 -156 99 -138T94 -102Q92 -120 89 -138T82 -174H61L42 -65H65Q67 -85 68 -105T74 -146Q76 -126 79 -106T86 -65H104L116 -146Q118 -126 120 -106T125 -65H146ZM252 -65L231 -174H211Q207 -156 205 -138T200 -102Q198 -120 195 -138T189 -174H167L149
-65H171Q173 -85 175 -105T180 -146Q182 -126 185 -106T192 -65H211L222 -146Q224 -126 226 -106T231 -65H252ZM358 -65L338 -174H317Q313 -156 311 -138T306 -102Q304 -120 301 -138T295 -174H274L255 -65H277Q279 -85 281 -105T286 -146Q288 -126 291 -106T298
-65H317L329 -146Q330 -126 332 -106T338 -65H358ZM546 -122Q553 -125 556 -131T561 -145T564 -160T568 -174H543Q540 -168 539 -161T536 -147T530 -136T517 -132V-174H491V-66Q505 -64 522 -63T553 -70Q568 -81 564 -98T546 -122ZM748 -174H723Q713 -155 705 -136T688
-98Q689 -117 689 -136T689 -174H666V-65H694L727 -139Q725 -120 725 -102T725 -65H748V-174ZM487 2Q493 9 494 20T496 43T494 66T492 86V148Q492 156 492 162T487 177H524Q519 172 518 162T516 142T518 121T519 103V22H570Q581 22 597 21T624 27Q622 23 621 13T614
2H487ZM478 -174H453L446 -149H420L415 -174H389L418 -65H449L478 -174ZM848 -170Q828 -178 810 -175T779 -160T763 -131T770 -92Q776 -78 789 -71T820 -64Q821 -64 825 -64T833 -65T841 -67T845 -69L841 -89Q828 -83 818 -85T800 -94T790 -112T791 -135Q799 -158
821 -155Q826 -154 825 -145T824 -131H811V-111H848V-170ZM573 90Q567 101 563 112T554 135Q549 146 547 157T536 177H574Q568 163 575 145T588 115Q594 129 599 145T599 177H638Q627 171 625 158T620 135Q617 125 609 112T600 88Q600 77 599 61T605 35H568Q577
44 575 61T573 90ZM347 135Q347 143 342 148T331 156T320 155T312 144Q311 137 311 130T312 116Q312 98 312 80T312 43Q312 35 316 30T327 23T338 23T346 35Q347 41 347 48T347 63V135ZM451 17Q449 48 441 79T412 136V23Q412 16 417 12T430 6T443 7T451 17ZM262
536Q248 533 237 525T215 506Q212 503 208 494T200 475T198 458T209 450Q224 450 233 459T248 482T257 511T262 536ZM582 -65H608V-174H582V-65ZM259 464Q266 466 273 473T286 490T293 510T293 527Q290 538 277 538Q270 520 267 502T259 464ZM553 323Q563 323 575
324T589 340Q589 348 586 351T577 356T565 358T553 358V323ZM635 553Q634 557 633 559T627 560Q619 556 615 549T608 533Q606 528 608 520T619 518Q625 524 629 534T635 553ZM486 510Q491 503 498 507Q506 509 509 517T511 534Q510 539 507 542T496 540Q486 533
484 517L486 510ZM349 -160Q349 -153 353 -149T364 -145T374 -149T379 -160Q379 -168 375 -171T364 -175T354 -172T349 -160ZM622 -160Q622 -153 626 -149T637 -145T647 -149T652 -160Q652 -168 648 -171T637 -175T627 -172T622 -160ZM523 -113Q532 -113 536 -108T539
-97T534 -87T520 -83Q515 -84 516 -96T517 -113H523ZM443 -130Q441 -119 439 -108T433 -85L423 -130H443ZM437 518Q434 514 430 507T427 495Q429 489 435 490T442 497Q443 506 437 518ZM320 482Q326 481 334 489T343 503Q345 507 342 509T336 508Q331 503 327 496T320
482ZM704 607Q686 589 680 565Q688 575 695 584T705 607H704ZM383 539Q383 543 383 545T383 552Q380 552 379 549Q378 545 381 539H383Z" />
<glyph unicode="6" glyph-name="six" horiz-adv-x="911" d="M17 397Q51 415 84 430T155 456Q157 456 159 466T163 488T167 511T171 527Q182 544 204 553T242 570Q285 587 329 600T419 625Q465 636 511 644T604 656Q620 658 643 660T689 662T734 656T769 637Q770
635 768 623T765 607L762 559Q762 557 764 557Q802 546 838 529T899 478V477Q891 479 881 476T861 466T843 452T829 439Q844 431 853 416T867 384T870 348T864 315Q856 336 840 347T803 364T762 371T721 374Q699 376 675 375T630 382Q622 385 619 394T616 415T616
438T619 456Q529 449 442 429T270 379Q266 378 266 376Q267 371 270 360T275 335T278 311T275 297Q264 288 247 287T215 283Q196 280 177 277T138 271Q121 267 106 263T75 252Q68 248 61 246T47 238Q43 234 38 228T30 220Q35 237 42 253T55 284Q56 287 61 296T72
316T81 335T84 346Q72 363 56 379T17 397ZM747 457Q750 484 750 512T752 566Q752 580 753 594T756 622Q757 629 753 633T743 639T730 643T717 645Q659 654 597 646T477 625Q414 612 353 596T231 553Q220 547 209 541T187 527Q177 519 175 503T171 476Q167 444 167
412T167 346Q171 346 178 349T192 356T205 365T217 372Q235 380 253 386T291 400Q329 411 367 421T445 440Q483 448 520 455T597 466Q632 470 672 471T747 457ZM660 519Q655 515 652 512T643 506Q638 504 635 506T629 510Q627 508 623 506T615 503Q600 500 594
513V514Q590 509 586 506T574 500Q567 496 562 506Q559 512 560 517T564 528T569 538T570 550Q561 546 558 541T552 528T549 514T545 500Q542 492 533 496Q529 497 529 501Q529 503 529 505T530 509Q523 507 521 507T513 502Q508 497 501 493T486 489Q481 490 478
493T473 500Q465 492 454 484T429 478Q421 479 417 487Q405 473 392 469Q378 463 376 479Q374 492 380 500T391 519Q392 521 390 521T386 520Q382 510 377 499T365 477T347 460T324 454Q309 455 307 465T309 487T325 510T346 521Q352 521 354 516Q358 510 355 502Q352
491 342 483T320 472Q321 466 325 466T333 467T342 472T348 477Q360 487 365 499T376 525Q377 526 376 529T372 537T368 545T367 553Q372 566 384 564Q390 564 392 558Q394 553 393 547T392 535Q402 536 406 535T404 521Q400 513 396 505T390 487Q390 482 393 482Q403
482 410 492T422 514T433 539T446 556Q450 557 454 555Q455 553 455 549Q453 543 450 539T449 527Q452 521 455 515T458 501H459Q469 513 475 530T497 556Q515 563 521 546Q526 539 524 534T523 520Q527 521 530 525Q538 531 539 542T543 562Q545 564 548 564T554
564Q559 563 558 558V557Q563 562 570 565Q575 568 578 566T584 559Q586 553 585 548T581 538T576 527T574 515Q581 521 586 528T595 542T603 556T616 568Q626 573 641 568Q643 571 649 572T654 565Q652 556 647 546T642 526Q642 519 646 525Q656 535 661 548T670
575T682 601T703 622Q710 626 715 618Q721 607 717 595T705 574Q698 565 684 553T672 527Q674 519 683 521Q690 524 693 530T701 543Q703 544 707 544Q711 544 711 539L709 533Q701 514 683 507Q671 500 662 514Q660 516 660 519ZM878 485Q854 508 824 522T762
545Q761 517 761 490T758 435L757 436V433Q744 432 726 431T689 427T656 416T632 397Q628 394 634 393Q647 388 662 387T692 385T723 385T752 384Q766 383 780 382T808 375Q822 371 833 364T857 350Q857 380 847 402T807 435Q824 450 841 463T878 485ZM156 445Q127
437 99 426T44 400Q77 382 97 347Q98 346 95 340T88 326T81 312T76 302Q64 280 56 256Q81 269 107 275T160 285T213 292T266 304Q257 313 243 316T213 320T181 320T154 317Q154 349 154 381T156 445ZM385 166Q385 171 381 177H409Q423 171 434 153T451 120Q451
132 452 149T446 177H482Q476 172 476 165T477 151V31Q477 24 477 16T482 2H381Q386 9 387 19T389 40T387 63T385 82V166ZM334 177Q352 177 360 167T372 143T374 112T373 82V43Q373 20 360 11T325 2Q306 2 298 12T286 36T284 67T285 97Q285 107 285 116T285 135Q285
159 298 168T334 177ZM281 551Q287 551 291 550Q299 549 304 543T311 527Q314 506 300 487T267 456Q258 450 254 441T245 422T235 403T218 389Q207 381 192 384Q186 386 182 391T179 403Q179 414 186 421T204 431Q207 432 211 430T214 423Q208 419 203 419Q197
417 195 411T196 400Q198 398 200 398T204 396Q214 395 220 401T231 418T238 438T242 455Q229 442 212 438Q199 436 191 444Q183 448 183 462Q183 475 189 487Q202 517 231 535Q237 538 243 541T257 546Q262 548 267 552T278 557Q284 557 281 551ZM384 294Q382
301 379 312T375 336T376 358T386 375Q391 380 401 380T416 372Q419 364 415 362T406 359T398 363T398 371Q390 367 390 357T392 336T401 313T408 296Q414 278 416 254T406 212Q401 205 390 203T365 200T339 201T319 203Q325 210 326 221T328 244T326 268T324 289V350Q324
358 324 365T319 379H356Q349 373 350 363T351 345V276Q351 268 350 252T355 229Q362 218 373 225T387 241Q391 254 389 267T384 294ZM590 317Q588 313 583 303T573 281T567 259T572 245Q569 251 574 251T584 250T591 243T583 234Q571 229 566 238T562 256Q562
264 565 272T569 287T567 298T553 301V225Q561 225 573 224T595 229Q592 222 591 216T588 203H520Q525 209 525 215T526 229V350Q526 357 526 365T520 379H582Q594 367 594 350T590 317ZM502 374Q502 367 505 360T512 345T515 330T507 317Q500 312 491 312T480
323Q480 329 483 331T491 334T498 332T500 325Q507 326 507 331T503 341T494 351T485 357Q478 359 469 358T457 348Q451 336 455 327T467 311T485 298T501 284Q508 274 512 261T514 236T504 214T481 203Q468 202 455 202T428 203Q432 205 431 212T427 229T423 247T426
263Q431 269 442 269T455 259Q455 254 452 252T444 249T437 251T434 258Q428 256 428 251T431 241T440 232T448 226Q455 224 465 224T480 229Q490 239 488 249T479 267T461 283T446 295Q437 303 431 315T425 341T431 364T453 378Q466 381 479 380T505 379L502 374ZM146
-65L125 -174H104Q101 -156 99 -138T94 -102Q92 -120 89 -138T82 -174H61L42 -65H65Q67 -85 68 -105T74 -146Q76 -126 79 -106T86 -65H104L116 -146Q118 -126 120 -106T125 -65H146ZM252 -65L231 -174H211Q207 -156 205 -138T200 -102Q198 -120 195 -138T189 -174H167L149
-65H171Q173 -85 175 -105T180 -146Q182 -126 185 -106T192 -65H211L222 -146Q224 -126 226 -106T231 -65H252ZM358 -65L338 -174H317Q313 -156 311 -138T306 -102Q304 -120 301 -138T295 -174H274L255 -65H277Q279 -85 281 -105T286 -146Q288 -126 291 -106T298
-65H317L329 -146Q330 -126 332 -106T338 -65H358ZM546 -122Q553 -125 556 -131T561 -145T564 -160T568 -174H543Q540 -168 539 -161T536 -147T530 -136T517 -132V-174H491V-66Q505 -64 522 -63T553 -70Q568 -81 564 -98T546 -122ZM748 -174H723Q713 -155 705 -136T688
-98Q689 -117 689 -136T689 -174H666V-65H694L727 -139Q725 -120 725 -102T725 -65H748V-174ZM487 2Q493 9 494 20T496 43T494 66T492 86V148Q492 156 492 162T487 177H524Q519 172 518 162T516 142T518 121T519 103V22H570Q581 22 597 21T624 27Q622 23 621 13T614
2H487ZM478 -174H453L446 -149H420L415 -174H389L418 -65H449L478 -174ZM848 -170Q828 -178 810 -175T779 -160T763 -131T770 -92Q776 -78 789 -71T820 -64Q821 -64 825 -64T833 -65T841 -67T845 -69L841 -89Q828 -83 818 -85T800 -94T790 -112T791 -135Q799 -158
821 -155Q826 -154 825 -145T824 -131H811V-111H848V-170ZM573 90Q567 101 563 112T554 135Q549 146 547 157T536 177H574Q568 163 575 145T588 115Q594 129 599 145T599 177H638Q627 171 625 158T620 135Q617 125 609 112T600 88Q600 77 599 61T605 35H568Q577
44 575 61T573 90ZM347 135Q347 143 342 148T331 156T320 155T312 144Q311 137 311 130T312 116Q312 98 312 80T312 43Q312 35 316 30T327 23T338 23T346 35Q347 41 347 48T347 63V135ZM451 17Q449 48 441 79T412 136V23Q412 16 417 12T430 6T443 7T451 17ZM262
536Q248 533 237 525T215 506Q212 503 208 494T200 475T198 458T209 450Q224 450 233 459T248 482T257 511T262 536ZM582 -65H608V-174H582V-65ZM259 464Q266 466 273 473T286 490T293 510T293 527Q290 538 277 538Q270 520 267 502T259 464ZM553 323Q563 323 575
324T589 340Q589 348 586 351T577 356T565 358T553 358V323ZM635 553Q634 557 633 559T627 560Q619 556 615 549T608 533Q606 528 608 520T619 518Q625 524 629 534T635 553ZM486 510Q491 503 498 507Q506 509 509 517T511 534Q510 539 507 542T496 540Q486 533
484 517L486 510ZM349 -160Q349 -153 353 -149T364 -145T374 -149T379 -160Q379 -168 375 -171T364 -175T354 -172T349 -160ZM622 -160Q622 -153 626 -149T637 -145T647 -149T652 -160Q652 -168 648 -171T637 -175T627 -172T622 -160ZM523 -113Q532 -113 536 -108T539
-97T534 -87T520 -83Q515 -84 516 -96T517 -113H523ZM443 -130Q441 -119 439 -108T433 -85L423 -130H443ZM437 518Q434 514 430 507T427 495Q429 489 435 490T442 497Q443 506 437 518ZM320 482Q326 481 334 489T343 503Q345 507 342 509T336 508Q331 503 327 496T320
482ZM704 607Q686 589 680 565Q688 575 695 584T705 607H704ZM383 539Q383 543 383 545T383 552Q380 552 379 549Q378 545 381 539H383Z" />
<glyph unicode="7" glyph-name="seven" horiz-adv-x="911" d="M17 397Q51 415 84 430T155 456Q157 456 159 466T163 488T167 511T171 527Q182 544 204 553T242 570Q285 587 329 600T419 625Q465 636 511 644T604 656Q620 658 643 660T689 662T734 656T769 637Q770
635 768 623T765 607L762 559Q762 557 764 557Q802 546 838 529T899 478V477Q891 479 881 476T861 466T843 452T829 439Q844 431 853 416T867 384T870 348T864 315Q856 336 840 347T803 364T762 371T721 374Q699 376 675 375T630 382Q622 385 619 394T616 415T616
438T619 456Q529 449 442 429T270 379Q266 378 266 376Q267 371 270 360T275 335T278 311T275 297Q264 288 247 287T215 283Q196 280 177 277T138 271Q121 267 106 263T75 252Q68 248 61 246T47 238Q43 234 38 228T30 220Q35 237 42 253T55 284Q56 287 61 296T72
316T81 335T84 346Q72 363 56 379T17 397ZM747 457Q750 484 750 512T752 566Q752 580 753 594T756 622Q757 629 753 633T743 639T730 643T717 645Q659 654 597 646T477 625Q414 612 353 596T231 553Q220 547 209 541T187 527Q177 519 175 503T171 476Q167 444 167
412T167 346Q171 346 178 349T192 356T205 365T217 372Q235 380 253 386T291 400Q329 411 367 421T445 440Q483 448 520 455T597 466Q632 470 672 471T747 457ZM660 519Q655 515 652 512T643 506Q638 504 635 506T629 510Q627 508 623 506T615 503Q600 500 594
513V514Q590 509 586 506T574 500Q567 496 562 506Q559 512 560 517T564 528T569 538T570 550Q561 546 558 541T552 528T549 514T545 500Q542 492 533 496Q529 497 529 501Q529 503 529 505T530 509Q523 507 521 507T513 502Q508 497 501 493T486 489Q481 490 478
493T473 500Q465 492 454 484T429 478Q421 479 417 487Q405 473 392 469Q378 463 376 479Q374 492 380 500T391 519Q392 521 390 521T386 520Q382 510 377 499T365 477T347 460T324 454Q309 455 307 465T309 487T325 510T346 521Q352 521 354 516Q358 510 355 502Q352
491 342 483T320 472Q321 466 325 466T333 467T342 472T348 477Q360 487 365 499T376 525Q377 526 376 529T372 537T368 545T367 553Q372 566 384 564Q390 564 392 558Q394 553 393 547T392 535Q402 536 406 535T404 521Q400 513 396 505T390 487Q390 482 393 482Q403
482 410 492T422 514T433 539T446 556Q450 557 454 555Q455 553 455 549Q453 543 450 539T449 527Q452 521 455 515T458 501H459Q469 513 475 530T497 556Q515 563 521 546Q526 539 524 534T523 520Q527 521 530 525Q538 531 539 542T543 562Q545 564 548 564T554
564Q559 563 558 558V557Q563 562 570 565Q575 568 578 566T584 559Q586 553 585 548T581 538T576 527T574 515Q581 521 586 528T595 542T603 556T616 568Q626 573 641 568Q643 571 649 572T654 565Q652 556 647 546T642 526Q642 519 646 525Q656 535 661 548T670
575T682 601T703 622Q710 626 715 618Q721 607 717 595T705 574Q698 565 684 553T672 527Q674 519 683 521Q690 524 693 530T701 543Q703 544 707 544Q711 544 711 539L709 533Q701 514 683 507Q671 500 662 514Q660 516 660 519ZM878 485Q854 508 824 522T762
545Q761 517 761 490T758 435L757 436V433Q744 432 726 431T689 427T656 416T632 397Q628 394 634 393Q647 388 662 387T692 385T723 385T752 384Q766 383 780 382T808 375Q822 371 833 364T857 350Q857 380 847 402T807 435Q824 450 841 463T878 485ZM156 445Q127
437 99 426T44 400Q77 382 97 347Q98 346 95 340T88 326T81 312T76 302Q64 280 56 256Q81 269 107 275T160 285T213 292T266 304Q257 313 243 316T213 320T181 320T154 317Q154 349 154 381T156 445ZM385 166Q385 171 381 177H409Q423 171 434 153T451 120Q451
132 452 149T446 177H482Q476 172 476 165T477 151V31Q477 24 477 16T482 2H381Q386 9 387 19T389 40T387 63T385 82V166ZM334 177Q352 177 360 167T372 143T374 112T373 82V43Q373 20 360 11T325 2Q306 2 298 12T286 36T284 67T285 97Q285 107 285 116T285 135Q285
159 298 168T334 177ZM281 551Q287 551 291 550Q299 549 304 543T311 527Q314 506 300 487T267 456Q258 450 254 441T245 422T235 403T218 389Q207 381 192 384Q186 386 182 391T179 403Q179 414 186 421T204 431Q207 432 211 430T214 423Q208 419 203 419Q197
417 195 411T196 400Q198 398 200 398T204 396Q214 395 220 401T231 418T238 438T242 455Q229 442 212 438Q199 436 191 444Q183 448 183 462Q183 475 189 487Q202 517 231 535Q237 538 243 541T257 546Q262 548 267 552T278 557Q284 557 281 551ZM384 294Q382
301 379 312T375 336T376 358T386 375Q391 380 401 380T416 372Q419 364 415 362T406 359T398 363T398 371Q390 367 390 357T392 336T401 313T408 296Q414 278 416 254T406 212Q401 205 390 203T365 200T339 201T319 203Q325 210 326 221T328 244T326 268T324 289V350Q324
358 324 365T319 379H356Q349 373 350 363T351 345V276Q351 268 350 252T355 229Q362 218 373 225T387 241Q391 254 389 267T384 294ZM590 317Q588 313 583 303T573 281T567 259T572 245Q569 251 574 251T584 250T591 243T583 234Q571 229 566 238T562 256Q562
264 565 272T569 287T567 298T553 301V225Q561 225 573 224T595 229Q592 222 591 216T588 203H520Q525 209 525 215T526 229V350Q526 357 526 365T520 379H582Q594 367 594 350T590 317ZM502 374Q502 367 505 360T512 345T515 330T507 317Q500 312 491 312T480
323Q480 329 483 331T491 334T498 332T500 325Q507 326 507 331T503 341T494 351T485 357Q478 359 469 358T457 348Q451 336 455 327T467 311T485 298T501 284Q508 274 512 261T514 236T504 214T481 203Q468 202 455 202T428 203Q432 205 431 212T427 229T423 247T426
263Q431 269 442 269T455 259Q455 254 452 252T444 249T437 251T434 258Q428 256 428 251T431 241T440 232T448 226Q455 224 465 224T480 229Q490 239 488 249T479 267T461 283T446 295Q437 303 431 315T425 341T431 364T453 378Q466 381 479 380T505 379L502 374ZM146
-65L125 -174H104Q101 -156 99 -138T94 -102Q92 -120 89 -138T82 -174H61L42 -65H65Q67 -85 68 -105T74 -146Q76 -126 79 -106T86 -65H104L116 -146Q118 -126 120 -106T125 -65H146ZM252 -65L231 -174H211Q207 -156 205 -138T200 -102Q198 -120 195 -138T189 -174H167L149
-65H171Q173 -85 175 -105T180 -146Q182 -126 185 -106T192 -65H211L222 -146Q224 -126 226 -106T231 -65H252ZM358 -65L338 -174H317Q313 -156 311 -138T306 -102Q304 -120 301 -138T295 -174H274L255 -65H277Q279 -85 281 -105T286 -146Q288 -126 291 -106T298
-65H317L329 -146Q330 -126 332 -106T338 -65H358ZM546 -122Q553 -125 556 -131T561 -145T564 -160T568 -174H543Q540 -168 539 -161T536 -147T530 -136T517 -132V-174H491V-66Q505 -64 522 -63T553 -70Q568 -81 564 -98T546 -122ZM748 -174H723Q713 -155 705 -136T688
-98Q689 -117 689 -136T689 -174H666V-65H694L727 -139Q725 -120 725 -102T725 -65H748V-174ZM487 2Q493 9 494 20T496 43T494 66T492 86V148Q492 156 492 162T487 177H524Q519 172 518 162T516 142T518 121T519 103V22H570Q581 22 597 21T624 27Q622 23 621 13T614
2H487ZM478 -174H453L446 -149H420L415 -174H389L418 -65H449L478 -174ZM848 -170Q828 -178 810 -175T779 -160T763 -131T770 -92Q776 -78 789 -71T820 -64Q821 -64 825 -64T833 -65T841 -67T845 -69L841 -89Q828 -83 818 -85T800 -94T790 -112T791 -135Q799 -158
821 -155Q826 -154 825 -145T824 -131H811V-111H848V-170ZM573 90Q567 101 563 112T554 135Q549 146 547 157T536 177H574Q568 163 575 145T588 115Q594 129 599 145T599 177H638Q627 171 625 158T620 135Q617 125 609 112T600 88Q600 77 599 61T605 35H568Q577
44 575 61T573 90ZM347 135Q347 143 342 148T331 156T320 155T312 144Q311 137 311 130T312 116Q312 98 312 80T312 43Q312 35 316 30T327 23T338 23T346 35Q347 41 347 48T347 63V135ZM451 17Q449 48 441 79T412 136V23Q412 16 417 12T430 6T443 7T451 17ZM262
536Q248 533 237 525T215 506Q212 503 208 494T200 475T198 458T209 450Q224 450 233 459T248 482T257 511T262 536ZM582 -65H608V-174H582V-65ZM259 464Q266 466 273 473T286 490T293 510T293 527Q290 538 277 538Q270 520 267 502T259 464ZM553 323Q563 323 575
324T589 340Q589 348 586 351T577 356T565 358T553 358V323ZM635 553Q634 557 633 559T627 560Q619 556 615 549T608 533Q606 528 608 520T619 518Q625 524 629 534T635 553ZM486 510Q491 503 498 507Q506 509 509 517T511 534Q510 539 507 542T496 540Q486 533
484 517L486 510ZM349 -160Q349 -153 353 -149T364 -145T374 -149T379 -160Q379 -168 375 -171T364 -175T354 -172T349 -160ZM622 -160Q622 -153 626 -149T637 -145T647 -149T652 -160Q652 -168 648 -171T637 -175T627 -172T622 -160ZM523 -113Q532 -113 536 -108T539
-97T534 -87T520 -83Q515 -84 516 -96T517 -113H523ZM443 -130Q441 -119 439 -108T433 -85L423 -130H443ZM437 518Q434 514 430 507T427 495Q429 489 435 490T442 497Q443 506 437 518ZM320 482Q326 481 334 489T343 503Q345 507 342 509T336 508Q331 503 327 496T320
482ZM704 607Q686 589 680 565Q688 575 695 584T705 607H704ZM383 539Q383 543 383 545T383 552Q380 552 379 549Q378 545 381 539H383Z" />
<glyph unicode="8" glyph-name="eight" horiz-adv-x="911" d="M17 397Q51 415 84 430T155 456Q157 456 159 466T163 488T167 511T171 527Q182 544 204 553T242 570Q285 587 329 600T419 625Q465 636 511 644T604 656Q620 658 643 660T689 662T734 656T769 637Q770
635 768 623T765 607L762 559Q762 557 764 557Q802 546 838 529T899 478V477Q891 479 881 476T861 466T843 452T829 439Q844 431 853 416T867 384T870 348T864 315Q856 336 840 347T803 364T762 371T721 374Q699 376 675 375T630 382Q622 385 619 394T616 415T616
438T619 456Q529 449 442 429T270 379Q266 378 266 376Q267 371 270 360T275 335T278 311T275 297Q264 288 247 287T215 283Q196 280 177 277T138 271Q121 267 106 263T75 252Q68 248 61 246T47 238Q43 234 38 228T30 220Q35 237 42 253T55 284Q56 287 61 296T72
316T81 335T84 346Q72 363 56 379T17 397ZM747 457Q750 484 750 512T752 566Q752 580 753 594T756 622Q757 629 753 633T743 639T730 643T717 645Q659 654 597 646T477 625Q414 612 353 596T231 553Q220 547 209 541T187 527Q177 519 175 503T171 476Q167 444 167
412T167 346Q171 346 178 349T192 356T205 365T217 372Q235 380 253 386T291 400Q329 411 367 421T445 440Q483 448 520 455T597 466Q632 470 672 471T747 457ZM660 519Q655 515 652 512T643 506Q638 504 635 506T629 510Q627 508 623 506T615 503Q600 500 594
513V514Q590 509 586 506T574 500Q567 496 562 506Q559 512 560 517T564 528T569 538T570 550Q561 546 558 541T552 528T549 514T545 500Q542 492 533 496Q529 497 529 501Q529 503 529 505T530 509Q523 507 521 507T513 502Q508 497 501 493T486 489Q481 490 478
493T473 500Q465 492 454 484T429 478Q421 479 417 487Q405 473 392 469Q378 463 376 479Q374 492 380 500T391 519Q392 521 390 521T386 520Q382 510 377 499T365 477T347 460T324 454Q309 455 307 465T309 487T325 510T346 521Q352 521 354 516Q358 510 355 502Q352
491 342 483T320 472Q321 466 325 466T333 467T342 472T348 477Q360 487 365 499T376 525Q377 526 376 529T372 537T368 545T367 553Q372 566 384 564Q390 564 392 558Q394 553 393 547T392 535Q402 536 406 535T404 521Q400 513 396 505T390 487Q390 482 393 482Q403
482 410 492T422 514T433 539T446 556Q450 557 454 555Q455 553 455 549Q453 543 450 539T449 527Q452 521 455 515T458 501H459Q469 513 475 530T497 556Q515 563 521 546Q526 539 524 534T523 520Q527 521 530 525Q538 531 539 542T543 562Q545 564 548 564T554
564Q559 563 558 558V557Q563 562 570 565Q575 568 578 566T584 559Q586 553 585 548T581 538T576 527T574 515Q581 521 586 528T595 542T603 556T616 568Q626 573 641 568Q643 571 649 572T654 565Q652 556 647 546T642 526Q642 519 646 525Q656 535 661 548T670
575T682 601T703 622Q710 626 715 618Q721 607 717 595T705 574Q698 565 684 553T672 527Q674 519 683 521Q690 524 693 530T701 543Q703 544 707 544Q711 544 711 539L709 533Q701 514 683 507Q671 500 662 514Q660 516 660 519ZM878 485Q854 508 824 522T762
545Q761 517 761 490T758 435L757 436V433Q744 432 726 431T689 427T656 416T632 397Q628 394 634 393Q647 388 662 387T692 385T723 385T752 384Q766 383 780 382T808 375Q822 371 833 364T857 350Q857 380 847 402T807 435Q824 450 841 463T878 485ZM156 445Q127
437 99 426T44 400Q77 382 97 347Q98 346 95 340T88 326T81 312T76 302Q64 280 56 256Q81 269 107 275T160 285T213 292T266 304Q257 313 243 316T213 320T181 320T154 317Q154 349 154 381T156 445ZM385 166Q385 171 381 177H409Q423 171 434 153T451 120Q451
132 452 149T446 177H482Q476 172 476 165T477 151V31Q477 24 477 16T482 2H381Q386 9 387 19T389 40T387 63T385 82V166ZM334 177Q352 177 360 167T372 143T374 112T373 82V43Q373 20 360 11T325 2Q306 2 298 12T286 36T284 67T285 97Q285 107 285 116T285 135Q285
159 298 168T334 177ZM281 551Q287 551 291 550Q299 549 304 543T311 527Q314 506 300 487T267 456Q258 450 254 441T245 422T235 403T218 389Q207 381 192 384Q186 386 182 391T179 403Q179 414 186 421T204 431Q207 432 211 430T214 423Q208 419 203 419Q197
417 195 411T196 400Q198 398 200 398T204 396Q214 395 220 401T231 418T238 438T242 455Q229 442 212 438Q199 436 191 444Q183 448 183 462Q183 475 189 487Q202 517 231 535Q237 538 243 541T257 546Q262 548 267 552T278 557Q284 557 281 551ZM384 294Q382
301 379 312T375 336T376 358T386 375Q391 380 401 380T416 372Q419 364 415 362T406 359T398 363T398 371Q390 367 390 357T392 336T401 313T408 296Q414 278 416 254T406 212Q401 205 390 203T365 200T339 201T319 203Q325 210 326 221T328 244T326 268T324 289V350Q324
358 324 365T319 379H356Q349 373 350 363T351 345V276Q351 268 350 252T355 229Q362 218 373 225T387 241Q391 254 389 267T384 294ZM590 317Q588 313 583 303T573 281T567 259T572 245Q569 251 574 251T584 250T591 243T583 234Q571 229 566 238T562 256Q562
264 565 272T569 287T567 298T553 301V225Q561 225 573 224T595 229Q592 222 591 216T588 203H520Q525 209 525 215T526 229V350Q526 357 526 365T520 379H582Q594 367 594 350T590 317ZM502 374Q502 367 505 360T512 345T515 330T507 317Q500 312 491 312T480
323Q480 329 483 331T491 334T498 332T500 325Q507 326 507 331T503 341T494 351T485 357Q478 359 469 358T457 348Q451 336 455 327T467 311T485 298T501 284Q508 274 512 261T514 236T504 214T481 203Q468 202 455 202T428 203Q432 205 431 212T427 229T423 247T426
263Q431 269 442 269T455 259Q455 254 452 252T444 249T437 251T434 258Q428 256 428 251T431 241T440 232T448 226Q455 224 465 224T480 229Q490 239 488 249T479 267T461 283T446 295Q437 303 431 315T425 341T431 364T453 378Q466 381 479 380T505 379L502 374ZM146
-65L125 -174H104Q101 -156 99 -138T94 -102Q92 -120 89 -138T82 -174H61L42 -65H65Q67 -85 68 -105T74 -146Q76 -126 79 -106T86 -65H104L116 -146Q118 -126 120 -106T125 -65H146ZM252 -65L231 -174H211Q207 -156 205 -138T200 -102Q198 -120 195 -138T189 -174H167L149
-65H171Q173 -85 175 -105T180 -146Q182 -126 185 -106T192 -65H211L222 -146Q224 -126 226 -106T231 -65H252ZM358 -65L338 -174H317Q313 -156 311 -138T306 -102Q304 -120 301 -138T295 -174H274L255 -65H277Q279 -85 281 -105T286 -146Q288 -126 291 -106T298
-65H317L329 -146Q330 -126 332 -106T338 -65H358ZM546 -122Q553 -125 556 -131T561 -145T564 -160T568 -174H543Q540 -168 539 -161T536 -147T530 -136T517 -132V-174H491V-66Q505 -64 522 -63T553 -70Q568 -81 564 -98T546 -122ZM748 -174H723Q713 -155 705 -136T688
-98Q689 -117 689 -136T689 -174H666V-65H694L727 -139Q725 -120 725 -102T725 -65H748V-174ZM487 2Q493 9 494 20T496 43T494 66T492 86V148Q492 156 492 162T487 177H524Q519 172 518 162T516 142T518 121T519 103V22H570Q581 22 597 21T624 27Q622 23 621 13T614
2H487ZM478 -174H453L446 -149H420L415 -174H389L418 -65H449L478 -174ZM848 -170Q828 -178 810 -175T779 -160T763 -131T770 -92Q776 -78 789 -71T820 -64Q821 -64 825 -64T833 -65T841 -67T845 -69L841 -89Q828 -83 818 -85T800 -94T790 -112T791 -135Q799 -158
821 -155Q826 -154 825 -145T824 -131H811V-111H848V-170ZM573 90Q567 101 563 112T554 135Q549 146 547 157T536 177H574Q568 163 575 145T588 115Q594 129 599 145T599 177H638Q627 171 625 158T620 135Q617 125 609 112T600 88Q600 77 599 61T605 35H568Q577
44 575 61T573 90ZM347 135Q347 143 342 148T331 156T320 155T312 144Q311 137 311 130T312 116Q312 98 312 80T312 43Q312 35 316 30T327 23T338 23T346 35Q347 41 347 48T347 63V135ZM451 17Q449 48 441 79T412 136V23Q412 16 417 12T430 6T443 7T451 17ZM262
536Q248 533 237 525T215 506Q212 503 208 494T200 475T198 458T209 450Q224 450 233 459T248 482T257 511T262 536ZM582 -65H608V-174H582V-65ZM259 464Q266 466 273 473T286 490T293 510T293 527Q290 538 277 538Q270 520 267 502T259 464ZM553 323Q563 323 575
324T589 340Q589 348 586 351T577 356T565 358T553 358V323ZM635 553Q634 557 633 559T627 560Q619 556 615 549T608 533Q606 528 608 520T619 518Q625 524 629 534T635 553ZM486 510Q491 503 498 507Q506 509 509 517T511 534Q510 539 507 542T496 540Q486 533
484 517L486 510ZM349 -160Q349 -153 353 -149T364 -145T374 -149T379 -160Q379 -168 375 -171T364 -175T354 -172T349 -160ZM622 -160Q622 -153 626 -149T637 -145T647 -149T652 -160Q652 -168 648 -171T637 -175T627 -172T622 -160ZM523 -113Q532 -113 536 -108T539
-97T534 -87T520 -83Q515 -84 516 -96T517 -113H523ZM443 -130Q441 -119 439 -108T433 -85L423 -130H443ZM437 518Q434 514 430 507T427 495Q429 489 435 490T442 497Q443 506 437 518ZM320 482Q326 481 334 489T343 503Q345 507 342 509T336 508Q331 503 327 496T320
482ZM704 607Q686 589 680 565Q688 575 695 584T705 607H704ZM383 539Q383 543 383 545T383 552Q380 552 379 549Q378 545 381 539H383Z" />
<glyph unicode="9" glyph-name="nine" horiz-adv-x="911" d="M17 397Q51 415 84 430T155 456Q157 456 159 466T163 488T167 511T171 527Q182 544 204 553T242 570Q285 587 329 600T419 625Q465 636 511 644T604 656Q620 658 643 660T689 662T734 656T769 637Q770
635 768 623T765 607L762 559Q762 557 764 557Q802 546 838 529T899 478V477Q891 479 881 476T861 466T843 452T829 439Q844 431 853 416T867 384T870 348T864 315Q856 336 840 347T803 364T762 371T721 374Q699 376 675 375T630 382Q622 385 619 394T616 415T616
438T619 456Q529 449 442 429T270 379Q266 378 266 376Q267 371 270 360T275 335T278 311T275 297Q264 288 247 287T215 283Q196 280 177 277T138 271Q121 267 106 263T75 252Q68 248 61 246T47 238Q43 234 38 228T30 220Q35 237 42 253T55 284Q56 287 61 296T72
316T81 335T84 346Q72 363 56 379T17 397ZM747 457Q750 484 750 512T752 566Q752 580 753 594T756 622Q757 629 753 633T743 639T730 643T717 645Q659 654 597 646T477 625Q414 612 353 596T231 553Q220 547 209 541T187 527Q177 519 175 503T171 476Q167 444 167
412T167 346Q171 346 178 349T192 356T205 365T217 372Q235 380 253 386T291 400Q329 411 367 421T445 440Q483 448 520 455T597 466Q632 470 672 471T747 457ZM660 519Q655 515 652 512T643 506Q638 504 635 506T629 510Q627 508 623 506T615 503Q600 500 594
513V514Q590 509 586 506T574 500Q567 496 562 506Q559 512 560 517T564 528T569 538T570 550Q561 546 558 541T552 528T549 514T545 500Q542 492 533 496Q529 497 529 501Q529 503 529 505T530 509Q523 507 521 507T513 502Q508 497 501 493T486 489Q481 490 478
493T473 500Q465 492 454 484T429 478Q421 479 417 487Q405 473 392 469Q378 463 376 479Q374 492 380 500T391 519Q392 521 390 521T386 520Q382 510 377 499T365 477T347 460T324 454Q309 455 307 465T309 487T325 510T346 521Q352 521 354 516Q358 510 355 502Q352
491 342 483T320 472Q321 466 325 466T333 467T342 472T348 477Q360 487 365 499T376 525Q377 526 376 529T372 537T368 545T367 553Q372 566 384 564Q390 564 392 558Q394 553 393 547T392 535Q402 536 406 535T404 521Q400 513 396 505T390 487Q390 482 393 482Q403
482 410 492T422 514T433 539T446 556Q450 557 454 555Q455 553 455 549Q453 543 450 539T449 527Q452 521 455 515T458 501H459Q469 513 475 530T497 556Q515 563 521 546Q526 539 524 534T523 520Q527 521 530 525Q538 531 539 542T543 562Q545 564 548 564T554
564Q559 563 558 558V557Q563 562 570 565Q575 568 578 566T584 559Q586 553 585 548T581 538T576 527T574 515Q581 521 586 528T595 542T603 556T616 568Q626 573 641 568Q643 571 649 572T654 565Q652 556 647 546T642 526Q642 519 646 525Q656 535 661 548T670
575T682 601T703 622Q710 626 715 618Q721 607 717 595T705 574Q698 565 684 553T672 527Q674 519 683 521Q690 524 693 530T701 543Q703 544 707 544Q711 544 711 539L709 533Q701 514 683 507Q671 500 662 514Q660 516 660 519ZM878 485Q854 508 824 522T762
545Q761 517 761 490T758 435L757 436V433Q744 432 726 431T689 427T656 416T632 397Q628 394 634 393Q647 388 662 387T692 385T723 385T752 384Q766 383 780 382T808 375Q822 371 833 364T857 350Q857 380 847 402T807 435Q824 450 841 463T878 485ZM156 445Q127
437 99 426T44 400Q77 382 97 347Q98 346 95 340T88 326T81 312T76 302Q64 280 56 256Q81 269 107 275T160 285T213 292T266 304Q257 313 243 316T213 320T181 320T154 317Q154 349 154 381T156 445ZM385 166Q385 171 381 177H409Q423 171 434 153T451 120Q451
132 452 149T446 177H482Q476 172 476 165T477 151V31Q477 24 477 16T482 2H381Q386 9 387 19T389 40T387 63T385 82V166ZM334 177Q352 177 360 167T372 143T374 112T373 82V43Q373 20 360 11T325 2Q306 2 298 12T286 36T284 67T285 97Q285 107 285 116T285 135Q285
159 298 168T334 177ZM281 551Q287 551 291 550Q299 549 304 543T311 527Q314 506 300 487T267 456Q258 450 254 441T245 422T235 403T218 389Q207 381 192 384Q186 386 182 391T179 403Q179 414 186 421T204 431Q207 432 211 430T214 423Q208 419 203 419Q197
417 195 411T196 400Q198 398 200 398T204 396Q214 395 220 401T231 418T238 438T242 455Q229 442 212 438Q199 436 191 444Q183 448 183 462Q183 475 189 487Q202 517 231 535Q237 538 243 541T257 546Q262 548 267 552T278 557Q284 557 281 551ZM384 294Q382
301 379 312T375 336T376 358T386 375Q391 380 401 380T416 372Q419 364 415 362T406 359T398 363T398 371Q390 367 390 357T392 336T401 313T408 296Q414 278 416 254T406 212Q401 205 390 203T365 200T339 201T319 203Q325 210 326 221T328 244T326 268T324 289V350Q324
358 324 365T319 379H356Q349 373 350 363T351 345V276Q351 268 350 252T355 229Q362 218 373 225T387 241Q391 254 389 267T384 294ZM590 317Q588 313 583 303T573 281T567 259T572 245Q569 251 574 251T584 250T591 243T583 234Q571 229 566 238T562 256Q562
264 565 272T569 287T567 298T553 301V225Q561 225 573 224T595 229Q592 222 591 216T588 203H520Q525 209 525 215T526 229V350Q526 357 526 365T520 379H582Q594 367 594 350T590 317ZM502 374Q502 367 505 360T512 345T515 330T507 317Q500 312 491 312T480
323Q480 329 483 331T491 334T498 332T500 325Q507 326 507 331T503 341T494 351T485 357Q478 359 469 358T457 348Q451 336 455 327T467 311T485 298T501 284Q508 274 512 261T514 236T504 214T481 203Q468 202 455 202T428 203Q432 205 431 212T427 229T423 247T426
263Q431 269 442 269T455 259Q455 254 452 252T444 249T437 251T434 258Q428 256 428 251T431 241T440 232T448 226Q455 224 465 224T480 229Q490 239 488 249T479 267T461 283T446 295Q437 303 431 315T425 341T431 364T453 378Q466 381 479 380T505 379L502 374ZM146
-65L125 -174H104Q101 -156 99 -138T94 -102Q92 -120 89 -138T82 -174H61L42 -65H65Q67 -85 68 -105T74 -146Q76 -126 79 -106T86 -65H104L116 -146Q118 -126 120 -106T125 -65H146ZM252 -65L231 -174H211Q207 -156 205 -138T200 -102Q198 -120 195 -138T189 -174H167L149
-65H171Q173 -85 175 -105T180 -146Q182 -126 185 -106T192 -65H211L222 -146Q224 -126 226 -106T231 -65H252ZM358 -65L338 -174H317Q313 -156 311 -138T306 -102Q304 -120 301 -138T295 -174H274L255 -65H277Q279 -85 281 -105T286 -146Q288 -126 291 -106T298
-65H317L329 -146Q330 -126 332 -106T338 -65H358ZM546 -122Q553 -125 556 -131T561 -145T564 -160T568 -174H543Q540 -168 539 -161T536 -147T530 -136T517 -132V-174H491V-66Q505 -64 522 -63T553 -70Q568 -81 564 -98T546 -122ZM748 -174H723Q713 -155 705 -136T688
-98Q689 -117 689 -136T689 -174H666V-65H694L727 -139Q725 -120 725 -102T725 -65H748V-174ZM487 2Q493 9 494 20T496 43T494 66T492 86V148Q492 156 492 162T487 177H524Q519 172 518 162T516 142T518 121T519 103V22H570Q581 22 597 21T624 27Q622 23 621 13T614
2H487ZM478 -174H453L446 -149H420L415 -174H389L418 -65H449L478 -174ZM848 -170Q828 -178 810 -175T779 -160T763 -131T770 -92Q776 -78 789 -71T820 -64Q821 -64 825 -64T833 -65T841 -67T845 -69L841 -89Q828 -83 818 -85T800 -94T790 -112T791 -135Q799 -158
821 -155Q826 -154 825 -145T824 -131H811V-111H848V-170ZM573 90Q567 101 563 112T554 135Q549 146 547 157T536 177H574Q568 163 575 145T588 115Q594 129 599 145T599 177H638Q627 171 625 158T620 135Q617 125 609 112T600 88Q600 77 599 61T605 35H568Q577
44 575 61T573 90ZM347 135Q347 143 342 148T331 156T320 155T312 144Q311 137 311 130T312 116Q312 98 312 80T312 43Q312 35 316 30T327 23T338 23T346 35Q347 41 347 48T347 63V135ZM451 17Q449 48 441 79T412 136V23Q412 16 417 12T430 6T443 7T451 17ZM262
536Q248 533 237 525T215 506Q212 503 208 494T200 475T198 458T209 450Q224 450 233 459T248 482T257 511T262 536ZM582 -65H608V-174H582V-65ZM259 464Q266 466 273 473T286 490T293 510T293 527Q290 538 277 538Q270 520 267 502T259 464ZM553 323Q563 323 575
324T589 340Q589 348 586 351T577 356T565 358T553 358V323ZM635 553Q634 557 633 559T627 560Q619 556 615 549T608 533Q606 528 608 520T619 518Q625 524 629 534T635 553ZM486 510Q491 503 498 507Q506 509 509 517T511 534Q510 539 507 542T496 540Q486 533
484 517L486 510ZM349 -160Q349 -153 353 -149T364 -145T374 -149T379 -160Q379 -168 375 -171T364 -175T354 -172T349 -160ZM622 -160Q622 -153 626 -149T637 -145T647 -149T652 -160Q652 -168 648 -171T637 -175T627 -172T622 -160ZM523 -113Q532 -113 536 -108T539
-97T534 -87T520 -83Q515 -84 516 -96T517 -113H523ZM443 -130Q441 -119 439 -108T433 -85L423 -130H443ZM437 518Q434 514 430 507T427 495Q429 489 435 490T442 497Q443 506 437 518ZM320 482Q326 481 334 489T343 503Q345 507 342 509T336 508Q331 503 327 496T320
482ZM704 607Q686 589 680 565Q688 575 695 584T705 607H704ZM383 539Q383 543 383 545T383 552Q380 552 379 549Q378 545 381 539H383Z" />
<glyph unicode=":" glyph-name="colon" horiz-adv-x="318" d="M118 -18Q104 -18 95 -8T83 13T86 34T109 44Q123 44 132 35T144 13T140 -8T118 -18ZM176 59Q162 59 153 69T141 90T144 112T167 122Q180 122 189 112T201 91T198 69T176 59Z" />
<glyph unicode=";" glyph-name="semicolon" horiz-adv-x="318" d="M48 -76Q31 -76 26 -69T22 -51T30 -31T45 -14Q51 -9 58 -2T74 13T92 27T110 33Q124 34 133 23T138 -2Q136 -11 129 -17T115 -29Q109 -34 101 -42T84 -57T66 -70T48 -76ZM173 56Q159 56 150 66T138
87T141 108T164 118Q177 118 186 109T198 87T195 66T173 56Z" />
<glyph unicode="&lt;" glyph-name="less" horiz-adv-x="418" d="M203 -32Q189 -32 173 -20T145 0Q138 4 128 9T109 21T94 36T90 55Q92 69 110 78T151 92T196 101T228 107L295 124Q306 127 316 123T331 110T336 92T322 75Q308 66 289 63T254 56L187 40Q195 35 203
31T218 20Q227 14 229 6T230 -11T220 -26T203 -32Z" />
<glyph unicode="=" glyph-name="equal" horiz-adv-x="398" d="M78 -19Q64 -19 57 -11T50 8T55 28T76 37Q104 44 137 41T199 37H252Q266 37 273 28T280 9T275 -10T254 -19H78ZM130 50Q116 50 109 58T102 77T107 97T128 106Q156 112 189 109T251 106H304Q318 106
325 97T332 78T327 59T306 50H130Z" />
<glyph unicode="&gt;" glyph-name="greater" horiz-adv-x="418" d="M96 -32Q85 -32 79 -26T70 -12T69 5T81 20Q89 25 100 27T120 31L215 55Q209 59 202 63T189 71T177 82T172 96Q171 107 175 113T187 123T203 125T220 119Q228 113 246 104T281 82T308 57T309 29Q303
20 290 15T261 6T230 0T205 -5Q179 -12 151 -22T96 -32Z" />
<glyph unicode="?" glyph-name="question" horiz-adv-x="564" d="M146 -58Q132 -58 123 -48T111 -27T114 -6T137 4Q151 4 160 -5T172 -27T168 -48T146 -58ZM221 76Q209 76 201 85T194 107Q195 121 207 131T231 150Q261 170 295 183T364 208Q397 219 430 228T498
250Q510 254 524 259T551 272T577 288T596 309Q608 329 601 341T576 359T533 368T484 370T441 367T414 364Q401 361 385 358T353 349T324 335T301 315Q297 310 297 304T298 293T296 282T284 273Q271 268 260 275T246 294Q239 317 247 335T272 368T314 392T363 409T410
420T447 426Q475 429 513 428T584 415T639 381T656 316Q653 288 636 268T596 233T545 208T495 190Q456 177 417 166T338 140Q303 128 272 110Q261 102 248 89T221 76Z" />
<glyph unicode="@" glyph-name="at" horiz-adv-x="610" d="M157 -138Q120 -138 83 -127T19 -93T-20 -37T-18 40Q-9 71 10 96T54 140T108 174T166 198Q199 208 238 213T316 218T392 206T459 175Q487 155 501 124T514 62T494 4T438 -32Q408 -40 379 -31T330 2Q293
-4 257 -11T182 -20Q166 -21 148 -18T121 2Q114 15 117 26T128 46T148 63T170 76Q196 88 223 95T280 105Q290 105 307 104T340 98T366 82T372 56Q369 44 375 36T391 24T414 21T437 28Q459 41 459 66T446 111Q425 139 390 150T315 163T236 157T168 140Q152 134 133
124T94 99T60 68T36 32T28 -6T47 -45Q68 -69 100 -77T167 -85T236 -74T296 -55Q311 -49 320 -55T332 -71T330 -93T310 -110Q273 -123 235 -130T157 -138Z" />
<glyph unicode="A" glyph-name="A" horiz-adv-x="1113" d="M25 -100Q6 -68 10 -35T32 28T74 84T122 131Q188 189 262 236T413 325Q490 367 568 404T728 475Q766 491 805 505T884 530Q896 533 912 538T946 544T978 543T1004 528Q1014 516 1016 502T1016 472T1009
441T999 413Q983 371 963 332T923 253L841 107Q907 106 971 106T1102 105Q1110 105 1119 104T1134 98T1143 86T1143 68Q1139 58 1131 54T1111 49T1089 49T1070 50L811 54Q793 22 776 -10T743 -75Q735 -92 728 -108T718 -144Q715 -163 702 -170T672 -179T637 -177T607
-171Q523 -149 442 -112T288 -26Q276 -18 260 -3T233 28T223 61T250 87Q277 97 308 98T368 102Q408 104 448 105T529 107Q591 108 652 108T777 107L801 149Q825 193 849 236T896 323Q907 346 918 369T940 417Q945 431 954 451T961 488Q948 491 932 488T899 480T867
469T840 459Q799 445 760 430T681 398Q596 362 515 322T355 233Q320 212 285 190T216 143T152 89T97 28Q89 18 82 6T71 -18T66 -44T72 -69Q79 -81 76 -92T63 -109T43 -114T25 -100ZM748 54Q678 55 609 55T470 54Q433 53 397 52T324 47L281 41Q292 29 310 19T338
3Q365 -14 393 -28T450 -56Q480 -70 510 -81T572 -104Q579 -106 590 -110T615 -118T640 -124T663 -125Q667 -96 682 -68T711 -14L748 54Z" />
<glyph unicode="B" glyph-name="B" horiz-adv-x="1026" d="M679 234Q645 205 611 176T543 114Q668 132 788 165T1019 257Q1035 265 1057 279T1102 311T1141 347T1164 386T1160 422T1116 454Q1074 472 1027 479T932 489T835 488T742 482Q665 477 584 466T425 432T276
374T146 283Q116 254 96 219T71 148T80 77T136 16Q146 9 154 2T159 -20Q156 -34 143 -40T118 -39Q86 -20 61 7T21 69Q7 108 11 146T31 220T73 287T128 343Q195 400 276 435T441 493Q517 513 593 523T748 539Q835 545 923 544T1097 520Q1131 510 1165 492T1217 440Q1234
405 1222 371T1186 311Q1162 284 1133 262T1070 222T1003 190T936 163Q848 129 758 106T575 67L597 60Q622 51 644 35T678 -3T691 -48T669 -99Q652 -119 629 -133T581 -155T529 -168T477 -173Q460 -174 442 -173T407 -168T375 -154T351 -129Q339 -109 340 -87T349
-44T370 -2T398 37Q381 37 362 35T327 36Q317 38 310 41T299 55Q292 73 303 81T328 92Q332 96 339 96T354 94Q379 96 404 98T455 103Q483 133 513 161T574 217Q591 232 610 253T651 282Q662 286 671 282T685 270T689 251T679 234ZM489 31Q484 32 479 32T468 33Q444
5 422 -30Q413 -44 407 -58T400 -85T408 -106T438 -118Q467 -123 496 -121T553 -110Q564 -107 582 -99T616 -78T638 -52T631 -21Q619 -7 602 2T566 17T526 26T489 31Z" />
<glyph unicode="C" glyph-name="C" horiz-adv-x="1132" d="M948 422Q925 441 897 451T839 465T779 468T720 462Q639 449 561 419T411 349Q342 311 279 264T161 159Q141 136 119 106T82 43T66 -24T86 -89Q101 -109 128 -116T187 -123T248 -119T298 -112Q396 -100
493 -71T688 -8T884 56T1084 101Q1092 102 1109 102T1140 100T1161 88T1155 61Q1150 53 1139 50T1116 46T1092 44T1072 42Q974 25 878 -5T684 -68T487 -129T284 -170Q258 -173 224 -176T156 -177T92 -163T44 -126Q17 -94 13 -58T17 15T45 87T86 150Q149 229 229
291T398 403Q486 452 582 486T780 524Q825 526 869 518T951 487Q962 481 975 472T992 451Q995 441 991 433T980 421T964 416T948 422Z" />
<glyph unicode="D" glyph-name="D" horiz-adv-x="1131" d="M569 248Q536 233 506 211T448 162T395 108T346 52Q333 38 321 23T297 -7Q292 -13 286 -23T273 -42T257 -58T239 -65Q222 -65 216 -49T208 -12T209 30T210 62Q208 104 201 147T168 225Q145 257 111 269T39
281Q30 284 23 287T12 301Q9 312 13 319T25 333T42 343T59 350Q140 388 224 416T393 467Q480 492 567 510T745 540Q782 544 820 547T898 550T975 542T1048 520Q1089 503 1113 475T1145 413T1146 340T1118 264Q1076 193 1014 138T886 35Q811 -18 732 -60T567 -136Q525
-152 484 -165T400 -189Q379 -194 358 -198T314 -206Q306 -207 295 -209T272 -213T250 -213T232 -204Q217 -187 224 -177T246 -161T280 -153T305 -150Q350 -143 393 -132T480 -107Q564 -79 642 -42T795 43Q867 88 935 143T1053 269Q1066 287 1077 309T1093 353T1094
398T1072 439Q1047 464 1012 474T944 490Q865 501 785 493T626 470Q553 456 482 438T339 398Q285 381 231 363T126 322Q158 310 184 289T227 236Q250 191 257 143T267 45Q313 102 366 156Q398 188 432 219T505 276Q514 282 523 289T544 298Q556 304 566 300T580
286T583 265T569 248Z" />
<glyph unicode="E" glyph-name="E" horiz-adv-x="1053" d="M722 219Q774 240 823 270T915 338Q924 345 937 358T961 385T976 415T972 444H973Q960 462 937 469T887 478T834 478T789 475Q711 468 635 450T483 407Q411 383 342 353T209 282Q189 270 162 251T110
208T73 158T70 103Q75 93 86 88T110 80T136 76T159 75Q236 73 317 88T468 134Q476 137 487 139T507 139T520 129T521 108Q517 94 502 84T475 65Q458 53 443 41T411 15Q407 11 393 0T361 -28T326 -62T297 -97T285 -126T298 -144Q319 -152 342 -151T389 -145T435
-131T478 -114Q561 -82 640 -42T801 33Q811 37 834 47T886 69T948 91T1008 105T1056 106T1082 86Q1088 68 1077 60T1049 47T1014 43T987 40Q943 29 902 13T819 -21Q738 -57 660 -96T498 -167Q474 -176 447 -186T391 -201T334 -207T279 -197Q236 -180 229 -153T238
-94T286 -27T355 39Q270 21 190 19Q169 19 144 19T95 26T50 44T20 79Q9 102 10 125T21 171T45 213T76 249Q107 279 142 303T216 349T294 387T373 421Q456 454 540 479T713 519Q746 524 785 529T863 535T939 526T1003 493Q1032 468 1035 440T1025 384T985 328T930
278T872 236T825 207Q808 197 786 184T743 167Q731 162 722 167T708 182T707 203T722 219Z" />
<glyph unicode="F" glyph-name="F" horiz-adv-x="1081" d="M284 21Q261 77 233 129T166 226Q154 239 140 252T111 275T77 291T40 296Q31 298 24 300T12 314Q8 326 12 333T23 346T41 353T59 358Q113 372 167 383T275 406Q453 442 630 470T988 517Q1088 528 1187
535T1386 534Q1395 534 1405 533T1424 527T1437 515T1435 494Q1431 485 1424 482T1409 477T1391 477T1375 479Q1322 482 1270 481T1165 476Q1021 466 880 448T595 407Q480 389 366 369T138 321Q162 306 183 285T222 239T255 189T283 141Q312 87 337 28Q366 31 395
34T453 42L519 142L625 300L649 336Q656 348 668 349T689 346T701 330T697 308L526 50L681 68Q750 76 818 82T956 96Q1013 102 1072 105Q1083 105 1093 99T1109 84T1111 66T1093 51Q1078 46 1060 47T1026 46Q989 44 953 41T879 34Q800 26 722 18T566 1L487 -7L394
-147Q377 -172 364 -165T340 -137T324 -92T314 -60L303 -27L283 -30L200 -39Q188 -41 180 -34T171 -17T174 0T192 11L284 21ZM415 -15L357 -21Q362 -34 366 -46T376 -73L415 -15Z" />
<glyph unicode="G" glyph-name="G" horiz-adv-x="942" d="M1160 456Q997 475 835 454T520 376Q436 344 357 302T207 203Q184 185 154 156T100 92T68 21T82 -48Q110 -89 159 -103T264 -117T374 -104T468 -83Q527 -67 584 -47T696 3Q704 7 714 15T736 29T757 35T777
26Q791 10 782 -3T761 -27Q719 -67 682 -111T615 -206Q610 -213 606 -224T597 -247T586 -268T570 -281Q552 -287 545 -280T538 -261T540 -236T547 -214Q562 -180 582 -149T627 -89Q596 -100 566 -108T507 -125Q432 -146 353 -159T195 -162Q168 -159 141 -151T90
-129T48 -95T19 -48Q6 -12 12 24T36 93T79 155T128 208Q187 265 257 310T402 390T558 450T717 492Q802 509 887 516T1058 520Q1111 519 1164 511Q1178 509 1184 500T1190 481T1182 462T1160 456Z" />
<glyph unicode="H" glyph-name="H" horiz-adv-x="1352" d="M994 -120Q975 -120 968 -110T961 -84T968 -50T983 -14T1000 17T1011 36Q1025 56 1039 74T1068 110Q1042 109 1017 108T967 105Q886 99 807 91T648 73Q645 72 640 72L485 -116L407 -212Q397 -224 386
-223T365 -215T345 -198T329 -182Q298 -156 266 -132T198 -85Q166 -65 130 -46T55 -18Q46 -16 36 -15T17 -5Q8 5 10 19T25 39Q36 45 51 46T79 49L185 65Q292 81 398 95T611 124Q632 150 653 175T696 226L846 401Q880 439 913 477T984 549Q992 557 1002 566T1025
577Q1035 578 1042 573T1052 560T1053 543T1044 527Q1003 494 967 456T895 378T826 295T758 213L692 134Q733 139 773 143T855 152Q920 158 985 163T1117 167L1165 219Q1210 267 1255 312T1349 402Q1352 405 1362 415T1387 438T1416 461T1444 477T1466 478T1476
455Q1476 447 1472 440T1462 427T1449 416T1437 406Q1398 372 1360 335Q1316 293 1274 251T1190 163Q1213 161 1237 154T1272 124Q1278 109 1272 99T1256 84T1234 83T1220 101Q1209 109 1186 111T1143 112Q1114 79 1086 44T1037 -29Q1031 -39 1025 -51T1018 -76Q1018
-83 1018 -90T1017 -104T1010 -115T994 -120ZM380 -156Q425 -101 469 -47T559 62Q456 48 355 34T151 4Q214 -27 270 -70T380 -156Z" />
<glyph unicode="I" glyph-name="I" horiz-adv-x="838" d="M614 425Q603 425 597 431T588 446T588 464T601 478Q614 485 627 488T655 495Q696 505 737 510T821 520L947 529Q948 529 948 529T950 530H952L996 532Q1014 533 1034 534T1074 537T1115 536T1152 528Q1163
523 1168 514T1171 493Q1168 483 1163 479T1151 475T1137 475T1122 477Q1085 481 1048 479T973 475Q968 474 963 474T952 474Q951 473 949 473Q934 470 920 463T891 447Q830 411 776 366T670 272Q607 213 548 151T434 21Q413 -3 395 -29T359 -84Q405 -81 450 -81T541
-86Q561 -88 582 -93T621 -111Q630 -117 635 -127T640 -146T634 -162T612 -168Q600 -167 586 -158T559 -146Q526 -138 492 -137T424 -137Q401 -138 377 -139T330 -142Q327 -153 327 -163Q327 -177 324 -190T301 -204Q278 -204 273 -187T273 -147L181 -159Q146 -164
110 -172T38 -181Q26 -181 19 -174T11 -156T15 -137T33 -126Q43 -124 53 -123T73 -119Q181 -100 293 -89Q298 -77 303 -69T311 -56Q352 13 403 74T510 192Q564 250 621 303T740 407Q755 419 772 433T807 462L752 455Q732 453 713 450T673 442Q659 439 644 432T614
425Z" />
<glyph unicode="J" glyph-name="J" horiz-adv-x="1373" d="M396 -188Q335 -188 275 -182T155 -160Q135 -155 111 -147T66 -127T29 -97T11 -55Q8 -27 22 -7T62 27T120 50T184 64T245 73T291 78Q422 94 552 99T814 107Q846 107 878 107T942 108Q966 135 988 162T1034
218Q1078 274 1120 329T1211 436Q1080 450 944 447T678 415Q655 410 632 403T586 385Q578 381 569 375T549 364T529 359T512 371Q502 385 508 397T531 420T571 440T616 456T656 467T682 473Q808 499 939 502T1198 494Q1208 493 1222 493T1251 490T1277 481T1293
463Q1298 447 1287 436T1266 413Q1252 398 1238 382T1210 350Q1159 290 1113 229T1016 108Q1068 108 1119 108T1223 107Q1241 107 1259 107T1296 106Q1315 106 1339 108T1382 104Q1390 101 1394 95T1400 82T1399 67T1389 54Q1382 49 1372 48T1351 46T1329 48T1310
50L1139 52H982Q965 52 958 44T940 25Q905 -10 868 -40T789 -96Q745 -123 697 -141T599 -169T498 -184T396 -188ZM887 52Q739 50 593 45T299 22Q247 16 193 8T91 -25Q67 -36 68 -49T95 -77Q133 -100 179 -111T273 -128T369 -133T460 -130Q568 -124 673 -92Q719
-78 756 -55T820 -10T865 31T887 52Z" />
<glyph unicode="K" glyph-name="K" horiz-adv-x="924" d="M1291 -195Q1212 -195 1133 -189T976 -173T819 -151T662 -128Q589 -117 517 -107T371 -85Q336 -80 301 -74T230 -66Q214 -65 205 -55T194 -34T200 -14T225 -7Q250 -9 276 -2T327 18T376 45T421 72Q499
116 573 164T719 265Q784 311 847 359T967 465Q978 476 988 487T1006 511Q1010 518 1014 525T1025 538T1039 543T1056 534Q1073 517 1056 486T997 415T897 328T771 236T638 145T513 66T413 6T356 -26Q540 -54 721 -80T1088 -126Q1149 -132 1214 -139T1340 -137Q1349
-135 1355 -130T1372 -125Q1388 -127 1394 -141T1393 -169Q1386 -180 1374 -185T1346 -193T1317 -195T1291 -195ZM38 -159Q18 -159 13 -146T13 -114T29 -71T53 -27T75 8T88 26Q176 154 277 273T491 499Q501 510 515 507T535 491Q542 477 535 467T519 449Q494 425
471 400T424 349Q364 283 308 217T197 80Q157 29 120 -24T65 -139Q63 -147 56 -153T38 -159Z" />
<glyph unicode="L" glyph-name="L" horiz-adv-x="842" d="M797 483Q792 487 782 484T762 474T742 460T729 450Q697 425 669 397T613 339Q553 275 499 208T390 72L286 -64Q328 -69 369 -73T453 -83Q626 -101 799 -116T1146 -126Q1185 -124 1221 -119T1294 -103Q1303
-101 1314 -103T1331 -112T1338 -127T1328 -146Q1322 -153 1312 -157T1292 -164Q1238 -181 1180 -181T1066 -180Q1004 -179 944 -176T821 -168Q692 -159 564 -146T307 -118Q293 -116 279 -115T250 -111Q231 -136 212 -161T172 -211Q166 -219 159 -229T144 -248T127
-266T108 -278Q95 -283 84 -280T62 -268T45 -250T32 -229Q16 -198 12 -163T17 -99T52 -54T122 -43L226 -57Q242 -36 257 -15T290 27Q341 94 393 159T499 290Q524 320 550 351T604 411T662 467T726 515Q738 522 752 528T780 538T808 538T834 525Q845 515 845 503T838
483T820 473T798 482L797 483ZM191 -102L109 -93Q57 -87 59 -140Q59 -148 61 -160T66 -186T76 -210T91 -227Q117 -202 139 -171T185 -110L191 -102Z" />
<glyph unicode="M" glyph-name="M" horiz-adv-x="1573" d="M1572 49Q1538 49 1504 39T1436 15T1370 -16T1307 -46Q1268 -63 1229 -79T1148 -106Q1131 -110 1112 -111T1077 -101Q1059 -89 1056 -70T1059 -29T1079 16T1108 61T1138 100T1160 128Q1188 166 1216 204T1273
282Q1291 307 1311 334T1343 392Q1335 390 1329 388T1316 383Q1261 360 1212 326T1114 257Q1065 221 1017 183T921 107T824 33T722 -35Q713 -41 697 -48T664 -57T637 -52T628 -21Q629 -1 640 19T667 60T698 98T727 130Q768 180 808 228T887 328Q919 370 952 414T1006
509Q974 506 941 495T875 468T811 437T753 406Q595 322 451 226Q379 178 311 128T179 20Q153 -5 128 -31T83 -89Q78 -97 71 -112T69 -139Q77 -151 80 -164T66 -187Q54 -193 45 -189T28 -176T16 -155T11 -134Q10 -115 16 -97T32 -61T56 -28T81 1Q137 63 202 115T334
215Q479 318 635 406Q714 451 796 492T967 557Q976 560 989 562T1014 565T1038 563T1058 550Q1072 533 1068 511T1052 467T1025 424T1001 392Q961 336 919 284T833 179Q812 152 791 126T749 72Q739 59 729 46T708 19Q741 38 771 64T830 112Q878 149 925 185T1021
259Q1069 294 1116 328T1215 394Q1244 411 1274 427T1338 448Q1352 450 1365 450T1390 439Q1407 424 1405 403T1391 359T1364 316T1339 283Q1307 238 1274 196T1208 108Q1178 67 1151 24Q1147 18 1141 9T1128 -11T1117 -33T1111 -53Q1152 -45 1191 -31T1270 -1T1348
34T1426 67Q1459 81 1493 92T1564 105Q1579 106 1587 98T1597 79T1593 59T1572 49Z" />
<glyph unicode="N" glyph-name="N" horiz-adv-x="1308" d="M1451 575Q1450 553 1442 532T1420 492T1393 454T1365 420Q1329 375 1290 334T1209 253Q1119 166 1025 85T828 -67Q809 -80 786 -96T737 -125T685 -147T635 -152Q613 -149 601 -135T584 -103T578 -63T582
-25Q591 29 610 81T649 185L700 308Q708 326 718 347T734 391Q717 387 700 381T668 367Q626 349 586 328T505 283Q429 238 357 187T219 77Q189 50 161 21T110 -40Q101 -52 91 -67T74 -100T65 -134T71 -167Q75 -177 74 -188T66 -206T51 -215T30 -206Q19 -196 15
-181T10 -150T13 -118T21 -90Q34 -52 57 -18T110 46T171 104T233 156Q302 213 376 262T528 356Q563 376 598 394T672 428Q691 436 713 444T757 451Q779 452 785 436T789 394T775 339T753 280T731 230T717 200Q698 154 680 108T648 13Q646 6 642 -10T634 -43T632
-76T642 -96Q654 -98 667 -94T694 -84T720 -70T744 -56Q819 -10 886 42Q952 91 1013 143T1133 251Q1190 305 1244 361T1345 481Q1362 504 1374 527T1395 576Q1399 587 1404 595T1423 604Q1435 604 1443 595T1451 575Z" />
<glyph unicode="O" glyph-name="O" horiz-adv-x="935" d="M786 540Q818 542 850 536T909 509Q925 496 933 480T944 445T945 407T937 369Q924 328 902 291T853 219T795 153T734 94Q675 40 608 -9T467 -95T315 -156T155 -181Q121 -181 92 -172T42 -144T14 -97T14
-32Q23 8 43 46T89 119T145 186T204 246Q261 301 327 351T465 442T616 509T775 540H786ZM788 484Q719 481 652 461T523 409T403 336T294 252Q236 202 184 145T95 20Q89 8 82 -6T70 -37T65 -68T71 -96Q77 -106 86 -112T107 -121T130 -125T152 -126Q221 -126 289
-108T423 -59T547 12T658 95Q714 143 764 196T852 313Q860 326 868 342T883 375T891 409T889 443Q884 458 873 466T847 479T817 483T788 484Z" />
<glyph unicode="P" glyph-name="P" horiz-adv-x="1094" d="M343 -181Q321 -181 317 -165T316 -129T329 -88T343 -59L349 -46Q301 -48 254 -47T158 -39Q150 -38 130 -36T93 -27T69 -10T79 18Q88 26 98 26T119 23Q139 18 159 16T201 11Q291 0 383 8Q400 33 418 57T456
104Q461 110 480 132T526 183T583 240T640 289T689 315T718 303Q723 292 717 281T699 261T674 243T654 229Q616 196 582 160T514 86Q499 69 485 51T457 15Q520 24 583 39Q683 62 779 101T957 204Q973 216 991 232T1024 267T1048 307T1056 351V350Q1053 386 1029
410T971 451T901 477T836 491Q742 507 646 504T455 484Q376 470 297 444T150 369Q124 350 103 327T68 273Q62 260 51 255T30 251T13 262T13 286Q25 318 45 345T90 394T145 434T205 466Q282 503 365 523T533 552Q623 562 714 560T894 536Q928 528 965 514T1033 478T1086
426T1111 355Q1114 300 1085 255T1009 173T911 109T817 64Q626 -21 417 -42Q411 -50 406 -59T396 -78Q388 -92 382 -106T373 -136Q371 -143 370 -151T367 -165T359 -176T343 -181Z" />
<glyph unicode="Q" glyph-name="Q" horiz-adv-x="973" d="M1047 -222Q978 -222 908 -221T769 -213T632 -194T497 -156Q459 -143 425 -126Q368 -149 309 -163T188 -180Q164 -181 137 -179T86 -167T43 -141T16 -97Q5 -59 15 -20T47 57T97 127T149 186Q204 246 269
300T407 400T557 478T716 529Q739 534 762 536T809 540Q847 541 880 532T935 502T966 450T963 378Q952 336 931 298T882 225T823 157T761 97Q702 43 636 -6T494 -94Q560 -120 629 -135T771 -157Q844 -164 917 -165T1063 -166Q1073 -166 1093 -164T1134 -163T1169
-170T1184 -194Q1184 -212 1167 -218T1127 -225T1081 -224T1047 -222ZM811 484Q743 482 677 463T547 413T426 343T315 263Q255 215 199 159T103 35Q96 23 88 9T75 -22T67 -53T70 -84Q75 -98 86 -106T112 -118T142 -124T169 -125Q219 -127 268 -118T365 -93Q338
-76 313 -58T264 -20Q256 -13 241 -1T211 26T189 55T188 83Q198 101 213 97T243 81T272 52T293 30Q357 -26 433 -66Q503 -34 566 8T686 98Q742 146 792 201T879 320Q886 333 894 349T908 383T915 417T910 450Q904 463 893 470T867 480T838 483T811 484Z" />
<glyph unicode="R" glyph-name="R" horiz-adv-x="996" d="M1340 -148Q1292 -168 1237 -171T1129 -175Q1034 -177 940 -172T750 -159Q654 -151 560 -141T370 -118Q359 -116 349 -114T333 -101Q326 -88 332 -76T353 -61Q449 -43 537 -7Q588 14 636 41T728 103Q757
127 787 159T841 228T874 305T872 387Q861 422 837 442T779 472T708 482T633 479T561 468T502 454Q499 454 497 453H498Q413 429 336 389T196 285Q154 242 123 192T77 82Q75 73 75 55T71 20T60 -8T34 -14Q17 -9 13 10T12 51T21 96T32 129Q58 207 107 270T221 381T359
462T510 515Q547 524 593 530T687 535T779 524T858 492T913 433T933 342Q932 295 915 253T869 172T806 102T735 44Q680 4 620 -25T496 -77Q622 -92 746 -102T997 -118Q1071 -120 1148 -121T1297 -103Q1302 -101 1308 -99T1319 -96Q1331 -94 1341 -100T1355 -114T1356
-132T1340 -148ZM220 -181Q199 -181 195 -168T197 -134T218 -89T246 -42T273 -4T290 17Q387 132 505 226Q515 234 528 244T555 250Q563 247 568 241T574 228T573 213T563 200Q523 171 486 137T413 68Q379 34 348 -1T289 -76Q279 -90 271 -104T255 -133Q252 -140
251 -148T246 -163T236 -176T220 -181Z" />
<glyph unicode="S" glyph-name="S" horiz-adv-x="865" d="M694 206Q739 227 779 257T855 320Q860 325 872 337T898 366T926 401T947 436T954 465T937 483Q910 492 881 494T823 493T765 484T710 472Q623 452 540 420T378 347Q309 311 242 268T121 167Q104 148 87
123T71 71Q71 54 93 47T150 38T226 41T305 50T372 60T413 66Q431 68 460 71T520 75T581 71T630 54T652 19T637 -39Q614 -81 577 -111T495 -163T402 -196T310 -214Q291 -217 264 -219T211 -218T163 -204T133 -169Q128 -154 134 -139T160 -125Q166 -125 171 -129T181
-138T186 -147T185 -151Q191 -160 205 -163T236 -166T268 -166T292 -164Q373 -156 447 -126Q469 -117 490 -106T531 -79T566 -46T592 -5Q601 7 595 12T576 20T550 22T532 21Q485 19 439 13T347 0Q307 -5 267 -9T187 -16Q169 -17 148 -17T107 -14T69 -4T36 18Q12
41 11 68T22 123T58 178T106 228T156 269T194 297Q265 346 341 385T498 458Q582 492 671 518T852 548Q868 549 887 549T925 545T961 535T991 514Q1008 495 1010 472T1005 426T982 380T948 336T912 298T881 268Q847 238 811 211T734 164Q724 159 714 155T692 157Q684
161 681 168T678 182T682 196T694 206Z" />
<glyph unicode="T" glyph-name="T" horiz-adv-x="769" d="M621 299Q565 224 509 150T392 3Q364 -31 336 -64T275 -129Q261 -143 243 -158T203 -176Q178 -176 165 -158T145 -113T136 -60T133 -17Q128 28 125 72T116 161Q111 201 104 245T75 324Q67 337 60 340T40
348Q29 352 20 356T10 376Q10 388 17 394T36 404T58 409T78 413L194 434Q269 448 344 458T495 477Q687 500 877 515T1260 539Q1274 540 1290 540T1314 522Q1319 509 1311 497T1289 484Q1275 480 1257 481T1223 481L1132 477L963 465Q865 458 768 450T573 430Q456
417 342 401T112 362Q126 342 135 317T150 264T159 212T165 167Q170 126 173 86T182 3Q183 -9 183 -24T186 -56T192 -87T203 -114Q208 -109 215 -105T227 -97Q244 -81 259 -64T291 -29Q360 50 422 132Q454 173 485 214T549 297Q553 303 558 311T569 326T582 339T598
344Q615 344 623 329T621 299Z" />
<glyph unicode="U" glyph-name="U" horiz-adv-x="1242" d="M19 119Q6 151 12 181T38 239T87 291T147 336T209 373T261 401Q320 432 381 457T506 502Q533 511 564 521T627 537T690 545T751 539Q782 527 783 503T768 447T722 382T663 318T606 265T571 232Q521 184
473 137T379 37Q371 28 354 9T322 -32T298 -75T300 -111L301 -112Q313 -120 331 -118T369 -110T406 -95T435 -82Q488 -59 537 -31T635 28Q731 87 821 152T1001 286Q1043 319 1085 352T1165 424Q1171 430 1180 435T1199 441T1214 437T1223 417Q1224 408 1220 399T1209
381T1195 364T1184 350Q1152 301 1120 252T1057 152Q1047 135 1035 116T1011 76T991 34T981 -7Q995 -4 1008 3T1032 17L1122 63Q1132 68 1152 79T1195 98T1237 107T1268 94Q1280 77 1271 67T1245 49T1210 38T1183 30Q1137 10 1094 -15T1003 -58Q988 -63 973 -65T944
-57Q927 -45 925 -26T927 14T941 54T957 87Q979 131 1003 172T1054 255Q988 204 920 157T785 64Q727 25 669 -12T550 -84Q524 -99 495 -115T436 -144T375 -165T313 -171Q282 -169 261 -150T240 -99Q240 -70 253 -42T285 13T326 63T366 107Q414 158 463 206T563
303Q589 328 614 353T664 405Q670 411 680 421T701 442T719 465T729 487Q709 493 686 492T638 485T591 472T549 460Q404 419 271 349Q245 335 214 318T153 280T100 232T69 175Q66 164 68 157T71 140Q76 128 71 118T56 104T35 103T19 119Z" />
<glyph unicode="V" glyph-name="V" horiz-adv-x="1032" d="M14 176Q3 217 21 255T73 326T145 385T213 429Q261 458 312 481T417 521Q434 526 456 531T500 538T543 535T577 513Q584 502 584 490T582 467T572 444T559 423Q528 373 491 327T418 235Q380 187 343 140T270
43Q253 18 237 -7T206 -59Q204 -62 200 -71T192 -90T185 -108T183 -117Q194 -124 209 -124T240 -120T271 -111T298 -101Q343 -85 386 -65T471 -22Q552 22 629 70T783 172Q853 222 921 274T1052 386Q1077 409 1100 434T1141 489Q1146 496 1149 503T1160 514Q1175
522 1189 513T1201 486Q1199 474 1193 462T1178 439T1160 418T1143 399Q1114 367 1083 338T1018 280Q949 222 877 170T729 67Q654 17 577 -28T418 -111Q393 -123 358 -139T286 -167T213 -180T150 -162Q133 -149 130 -131T132 -93T146 -55T164 -22Q191 24 222 66T286
150Q320 195 354 238T423 325Q440 348 457 371T490 417Q498 429 512 447T529 482Q521 486 504 484T468 478T432 468T408 459Q354 440 302 414T202 355Q184 343 163 328T124 296T90 258T69 215Q66 205 68 198T69 181Q68 169 61 163T44 156T26 160T14 176ZM533 480Q532
480 531 481Q533 479 533 479V480Z" />
<glyph unicode="W" glyph-name="W" horiz-adv-x="1492" d="M566 433Q535 418 510 391T461 340Q423 300 387 260T315 177Q277 131 240 84T166 -12Q151 -33 137 -54T108 -97Q100 -108 87 -127T69 -164Q87 -160 105 -152T142 -133T177 -112T210 -92Q255 -66 299 -39T388
17Q478 73 565 130T743 242Q751 247 771 259T817 284T869 307T915 318T946 307T950 264Q940 219 920 176T882 89Q872 66 863 43T846 -4Q843 -14 837 -32T833 -64Q952 -19 1062 47T1280 185Q1339 223 1396 264T1508 349Q1531 368 1554 387T1598 427Q1603 432 1611
439T1628 456T1642 474T1650 492Q1646 495 1643 498T1638 507Q1636 518 1642 528T1660 540Q1673 542 1684 534T1701 514Q1711 491 1701 467T1671 421T1628 380T1591 349Q1494 268 1390 197T1180 59Q1126 24 1071 -8T958 -71Q944 -79 926 -89T889 -108T850 -121T813
-119Q784 -110 778 -85T778 -26T802 49T837 129T872 204T894 263Q879 258 864 249T838 233Q805 216 774 198T710 159Q641 117 575 75T441 -10Q375 -53 309 -95T173 -175Q161 -181 139 -194T92 -215T47 -223T16 -201Q10 -188 11 -173T18 -144T32 -116T46 -91Q63
-62 82 -34T121 21Q163 80 207 135T299 246Q344 297 389 347T485 442Q498 453 514 468T549 486Q562 490 571 484T583 468T582 448T566 433Z" />
<glyph unicode="X" glyph-name="X" horiz-adv-x="1363" d="M1441 540Q1449 513 1434 487T1395 438T1343 397T1297 366Q1219 313 1137 268T971 179Q925 156 880 134T788 88Q812 53 842 25Q864 4 888 -3T938 -9T989 0T1042 16Q1079 27 1117 41T1194 68T1272 91T1350
105Q1366 106 1375 100T1387 83T1383 64T1361 49Q1323 49 1284 35T1210 10Q1174 -2 1136 -16T1057 -43T976 -62T897 -65Q871 -63 849 -51T808 -21T771 19T740 66Q625 12 509 -36T275 -128Q234 -143 193 -156T110 -179Q100 -181 88 -183T62 -186T38 -183T20 -169Q8
-154 10 -137T21 -104T42 -74T64 -49Q95 -14 128 17T196 79L366 230Q400 261 432 291T497 354Q512 370 527 386T556 420Q568 435 575 450T592 482Q599 494 613 495T636 487Q644 479 644 467T647 445Q653 407 664 369T689 294Q703 255 719 215T758 137Q843 178 926
220T1091 307Q1133 331 1175 356T1258 407Q1279 421 1299 436T1340 468Q1345 473 1352 479T1367 492T1380 507T1387 523Q1383 536 1389 545T1406 558T1426 557T1441 540ZM368 -32Q455 3 540 40T712 116L695 150Q667 206 643 266T602 388Q584 365 563 345T523 307Q482
266 440 228T355 152Q313 114 271 76T188 -1Q169 -19 151 -37T115 -75Q106 -84 91 -99T69 -130Q77 -129 85 -127T98 -124Q121 -119 142 -113T185 -100Q232 -84 277 -67T368 -32Z" />
<glyph unicode="Y" glyph-name="Y" horiz-adv-x="892" d="M499 437Q467 411 437 377T380 305T333 226T300 146Q297 138 295 127T292 104T297 84T314 72Q332 67 352 71T393 82T433 99T468 117Q550 159 626 212T775 321Q834 367 891 414T1005 513Q1018 526 1030
538T1057 563Q1057 563 1059 561Q1066 565 1074 567T1089 568T1100 560T1103 541Q1103 532 1096 522T1080 503T1061 485T1045 469Q987 406 929 344T809 221Q747 161 681 100T544 -17T395 -118T234 -192Q211 -200 187 -206T136 -214Q124 -216 110 -217T80 -218T50
-216T24 -207Q17 -203 14 -196T10 -182T15 -168T27 -158Q36 -154 47 -154T71 -155T95 -159T117 -160Q169 -156 218 -139T315 -98T407 -43T492 18Q563 71 628 129T758 249Q745 239 733 230T708 211Q654 172 600 135T485 66Q464 55 440 44T389 24T337 15T288 22Q261
32 249 51T236 95T241 146T259 199T282 247T304 286Q333 335 368 381T446 465Q451 470 457 476T472 485Q483 489 492 485T505 473T509 454T499 437Z" />
<glyph unicode="Z" glyph-name="Z" horiz-adv-x="973" d="M391 414Q506 456 627 480T869 519Q890 521 920 525T982 530T1042 526T1088 502Q1097 492 1098 482T1095 461T1083 442T1067 426Q1014 384 952 353T830 293Q764 260 698 229T565 166Q496 134 428 102T292
34Q258 17 225 0T158 -37Q140 -48 115 -61T74 -93Q143 -119 218 -127T368 -141Q464 -149 558 -152T748 -157Q839 -158 930 -156T1112 -148Q1155 -145 1197 -142T1283 -131Q1300 -128 1316 -125T1349 -117Q1357 -115 1366 -110T1383 -103Q1391 -101 1396 -95T1414
-92Q1428 -96 1432 -109T1429 -135Q1424 -145 1414 -152T1392 -163T1367 -170T1344 -175Q1265 -192 1184 -197T1022 -205Q839 -211 657 -208T291 -188Q248 -184 205 -179T119 -165Q96 -160 68 -153T22 -126Q5 -107 12 -88T38 -51T78 -21T112 0Q191 48 274 91T441
173T611 251T779 331Q817 349 854 367T928 406Q954 420 981 434T1031 469Q1014 473 994 473T959 471Q930 471 901 469T843 463Q788 457 734 448T626 426Q580 415 535 403T445 374Q434 370 420 364T394 360Q384 363 379 370T374 386T377 403T391 414ZM67 -103Q67
-102 68 -101Q67 -103 67 -103Z" />
<glyph unicode="[" glyph-name="bracketleft" horiz-adv-x="388" d="M10 -136Q-14 -136 -18 -126T-15 -103T3 -76T20 -56L260 198L341 283Q350 293 364 296T394 300T426 299T454 297Q468 297 484 299T513 296Q527 291 530 282T530 264T517 248T496 241H416Q409
241 395 242T376 239Q301 159 226 80T75 -80H141Q155 -80 163 -89T171 -108T166 -127T145 -136H10Z" />
<glyph unicode="\" glyph-name="backslash" horiz-adv-x="397" d="M326 -129Q324 -139 318 -145T303 -152T287 -151T273 -139Q268 -131 264 -124T256 -109Q215 -40 175 26Q152 64 130 101T86 177Q81 184 74 194T60 215T48 237T44 257Q45 267 52 273T67 281T83
280T96 268Q101 260 105 253T115 238L195 103L285 -48Q289 -56 296 -66T311 -87T322 -109T326 -129Z" />
<glyph unicode="]" glyph-name="bracketright" horiz-adv-x="419" d="M-52 -136Q-60 -136 -70 -137T-88 -136Q-100 -136 -107 -129T-115 -113T-113 -94T-97 -81Q-79 -75 -59 -77T-19 -81T20 -81T52 -65L342 241Q332 241 316 240T283 239T256 247T244 269Q244 285
257 291T289 299T326 299T355 297Q363 297 381 297T416 292T438 278T426 249L379 200Q331 148 283 97T186 -5L101 -95Q96 -100 91 -106T79 -120T65 -131T50 -136H-52Z" />
<glyph unicode="^" glyph-name="asciicircum" horiz-adv-x="420" d="M115 69Q102 69 96 76T88 92T92 111T107 124L162 146L306 205Q328 214 338 207T352 186T356 153T355 121Q355 113 354 104T349 87T338 76T318 76Q308 79 304 86T299 103T298 123T299 141Q277
133 256 124T212 106Q202 102 190 96T165 83T140 73T115 69Z" />
<glyph unicode="_" glyph-name="underscore" horiz-adv-x="340" d="M38 -64Q24 -64 17 -56T10 -37T16 -17T37 -8Q65 -2 97 -5T159 -8H213Q227 -8 234 -17T241 -36T236 -55T215 -64H38Z" />
<glyph unicode="`" glyph-name="grave" horiz-adv-x="253" d="M177 184Q166 184 155 193T134 216T114 242T99 262Q94 268 82 282T63 311T57 338T83 352Q94 352 105 343T127 321T147 295T162 274Q167 268 179 254T199 224T205 196T177 184Z" />
<glyph unicode="a" glyph-name="a" horiz-adv-x="410" d="M136 103Q141 101 145 99T152 93Q172 95 192 87Q212 76 213 64T206 37Q228 40 250 47T295 63T338 81T380 96Q391 99 403 102T427 97Q436 90 438 82T437 67T427 53T411 46Q379 41 348 28T287 4Q273 -1 257
-7T224 -17T190 -21T158 -17Q141 -9 137 3T137 30Q117 27 97 21Q71 13 46 3T-6 -12Q-23 -15 -41 -12T-68 8Q-79 29 -70 47T-41 79T2 101T40 112Q65 115 89 113T136 103ZM4 44Q14 46 24 49T44 56Q20 53 4 44Z" />
<glyph unicode="b" glyph-name="b" horiz-adv-x="402" d="M216 43Q209 43 197 43T171 42Q169 20 147 3T96 -24T39 -33T-5 -20Q-27 -1 -27 25T-12 80T28 140T79 198T129 246T164 278L240 347Q246 352 253 359T269 373T286 383T304 382Q323 373 317 357T294 324T258
293T234 274Q190 235 150 194T75 105Q71 100 65 87T51 60T38 35T31 24L32 23Q36 20 46 21T69 24T92 29T110 35Q124 40 132 47Q118 52 109 60T105 85Q108 97 115 100T131 104T150 102T168 100Q193 98 218 98T268 99L374 102Q382 102 396 101T423 96T440 83T433 58Q427
49 414 46T385 43T355 44T331 45Q302 44 274 44T216 43Z" />
<glyph unicode="c" glyph-name="c" horiz-adv-x="374" d="M36 57Q36 57 31 55Q34 49 41 45T58 40T77 38T93 37Q124 38 154 44T214 59Q252 70 292 85T373 102Q389 103 396 95T402 77T393 57T371 46Q351 44 332 37T293 23Q263 13 233 5T173 -10Q150 -15 126 -17T77
-18Q60 -17 38 -8T-1 15T-23 49T-11 89Q0 102 17 108T51 110Q68 107 73 95T76 71T62 54T37 57H36Z" />
<glyph unicode="d" glyph-name="d" horiz-adv-x="386" d="M498 372Q452 334 407 295T319 213Q298 193 276 172T232 129T191 82T160 31Q195 38 228 54T296 82Q316 89 336 94T378 102Q387 103 396 100T411 91T418 77T413 58Q405 47 389 46T361 42Q334 37 309 27T257
6Q230 -5 200 -17T140 -28Q108 -26 101 -10T102 29Q69 15 33 3T-38 -12Q-49 -12 -58 -10T-75 0Q-88 13 -85 26T-72 52T-47 75T-23 90Q13 108 54 112T134 106Q135 105 137 105Q141 107 144 107T151 109Q165 127 179 143T206 172T228 195T242 209Q282 249 323 287T408
362Q421 374 438 392T474 416Q484 419 491 416T503 405T506 388T498 372Z" />
<glyph unicode="e" glyph-name="e" horiz-adv-x="466" d="M470 47Q447 45 425 40T379 29Q319 15 260 3T140 -16Q124 -18 107 -19T72 -18T38 -11T9 6Q-2 15 -8 27T-16 52T-14 77T1 100Q8 107 23 111T58 118T96 119T129 112T148 96T147 69Q141 57 129 52T102 46T71
45T43 49Q47 45 59 43T84 39T109 38T124 38Q173 42 221 52T318 73Q353 81 387 89T457 102Q472 103 482 95T495 77T493 57T470 47Z" />
<glyph unicode="f" glyph-name="f" horiz-adv-x="319" d="M294 339Q238 298 191 246T100 141Q74 108 49 74T-2 5Q-14 -12 -25 -30T-47 -66L-59 -85Q-39 -75 -34 -70Q-20 -59 -8 -47T15 -21Q32 -3 50 18T83 63Q76 68 73 78Q69 88 73 97T85 110T102 115T120 107Q131
102 144 102T169 100Q195 98 220 98T271 101Q279 101 290 102T312 103T331 98T344 83Q351 62 334 54T290 43T238 41T201 43Q186 43 161 43T113 48Q99 13 76 -19T29 -80Q18 -92 4 -107T-26 -134T-61 -152T-97 -152Q-119 -144 -122 -125T-119 -85Q-105 -41 -78 -2T-22
74Q8 113 39 150T104 225Q134 259 165 291T231 353Q236 357 242 363T254 374T268 382T283 384Q292 383 297 378T303 365T303 351T294 339Z" />
<glyph unicode="g" glyph-name="g" horiz-adv-x="431" d="M430 46Q375 48 322 37T217 7Q210 -11 197 -28T168 -61T137 -90T109 -112Q97 -121 76 -137T32 -166T-14 -184T-55 -178Q-78 -162 -74 -141T-48 -99T5 -56T68 -16T125 14T159 30L166 33V37Q154 39 140 37T110
29T81 18T56 8Q44 4 31 -1T5 -9T-22 -13T-48 -9Q-65 -1 -68 12T-68 38T-53 64T-32 84Q-4 104 29 110T96 112Q108 110 126 107T155 92Q175 94 192 87T218 60Q218 57 220 55Q294 83 369 96Q376 97 386 99T408 102T429 103T446 98Q455 92 457 83T458 66T448 52T430
46ZM84 -61Q89 -56 97 -50T114 -36Q95 -46 80 -55Q74 -58 61 -66T32 -84T3 -107T-17 -129Q10 -121 36 -100T84 -61ZM167 37V36Q168 36 168 37H167ZM167 36Q167 36 168 37H167V36Z" />
<glyph unicode="h" glyph-name="h" horiz-adv-x="463" d="M348 348Q298 319 254 280T168 199Q144 176 121 152T75 104Q63 90 50 77T23 48Q44 53 64 60T102 72Q117 75 134 80T168 88T202 92T235 87Q254 80 258 63Q261 52 256 42Q273 47 289 53T321 64Q350 73 379
82T438 98Q446 100 457 100T478 98T491 88T492 66Q489 57 480 52T459 43T435 39T416 35Q382 25 349 15T283 -6Q266 -11 246 -16T208 -18Q201 -17 193 -12Q176 1 177 12T186 34H174Q138 28 102 19Q73 11 44 1T-17 -12Q-28 -13 -39 -9T-55 9Q-58 19 -55 30T-44 51T-28
71T-13 87Q38 145 93 198T206 303Q231 325 257 346T310 385Q321 393 334 395T357 384Q362 375 360 365T348 348Z" />
<glyph unicode="i" glyph-name="i" horiz-adv-x="260" d="M258 289Q258 278 255 272T246 264T232 262T216 265Q216 246 202 232Q192 222 172 216T127 209T79 211T37 224T11 248T12 285Q19 304 35 314T72 330T114 336T153 336Q163 336 180 334T215 327T244 313T258
289ZM2 102Q15 101 22 96T31 82T33 63T30 43Q39 45 47 45T62 48Q87 54 113 63Q146 74 179 84T248 100Q258 101 269 98T288 88T296 72T284 52Q277 47 270 47T254 46Q239 44 224 41T195 34Q165 26 136 17T77 -2Q60 -8 38 -15T-4 -17Q-16 -12 -21 -4T-28 15T-28 37T-23
58Q-27 64 -27 72T-24 86T-15 97T2 102ZM180 260Q184 271 175 279Q173 280 172 280T170 281Q159 283 143 285T109 288T76 284T54 269Q54 268 53 267Q55 259 67 255T95 248T124 246T143 246Q153 248 162 250T180 260Z" />
<glyph unicode="j" glyph-name="j" horiz-adv-x="289" d="M293 46Q239 48 185 37T80 8L76 -1Q58 -40 25 -71T-44 -128Q-56 -136 -75 -148T-114 -171T-155 -184T-191 -179Q-208 -168 -208 -149T-199 -114Q-188 -98 -173 -84T-139 -58T-103 -36T-68 -16Q-45 -3 -21
9T27 32V34Q24 40 20 42T11 45T1 47T-11 52Q-18 57 -20 64T-22 78T-16 92T-3 101Q11 106 28 102T56 89Q66 83 72 74T81 54L114 66Q155 80 196 89T281 101Q297 102 307 94T320 75T316 55T293 46ZM227 239Q227 235 227 232T225 223Q217 200 194 190T150 179Q132 178
107 185T64 206T39 239T52 280Q65 296 85 303T127 311T172 310T212 302Q226 299 242 294T269 278Q283 268 280 251T260 229Q252 226 245 228T231 236L227 239ZM189 230Q201 239 191 246T169 257Q160 257 145 257T116 256T92 253T84 248V246Q87 233 101 226T131
218T164 219T189 230ZM-65 -76Q-51 -65 -37 -54T-10 -28Q-50 -47 -88 -71T-149 -130Q-138 -127 -126 -120T-103 -105T-82 -89T-65 -76Z" />
<glyph unicode="k" glyph-name="k" horiz-adv-x="487" d="M349 348Q298 317 253 277T163 194Q130 162 94 127T29 54Q67 65 104 80T179 105Q187 107 198 109T221 112T243 110T260 97Q267 86 265 78T256 65T240 58T224 57Q207 59 189 56T154 46Q174 42 195 41T235
39Q280 43 323 58T409 86Q418 89 436 94T472 102T505 99T519 75Q519 61 506 53T476 41T441 34T414 29Q393 22 371 14T326 -2T280 -15T233 -19Q201 -17 168 -7T109 23Q106 24 103 29Q77 19 51 9T-4 -9Q-14 -11 -24 -11T-43 -5Q-54 3 -55 13T-51 35T-38 56T-24 73Q29
137 89 195T212 308Q237 329 262 349T315 387Q326 394 337 392T356 383T363 366T349 348Z" />
<glyph unicode="l" glyph-name="l" horiz-adv-x="247" d="M324 342Q278 310 236 274T155 197Q134 175 114 153T75 106Q71 101 64 93T48 74T32 52T21 31Q38 35 54 41T88 55Q116 66 144 77T202 95Q215 98 235 102T268 97Q278 90 280 82T279 67T268 54T251 46Q234
42 217 39T182 30Q142 16 104 -1T23 -26Q9 -28 -5 -26T-29 -10Q-43 10 -35 36T-10 89T29 137T62 173Q103 218 146 259T237 339Q251 350 268 366T303 387Q313 390 320 386T331 374T334 357T324 342Z" />
<glyph unicode="m" glyph-name="m" horiz-adv-x="654" d="M1 102Q17 101 24 95T31 80T28 61T18 40Q37 45 56 51T93 63Q108 67 124 73T158 85T192 94T224 96Q233 95 240 92T253 80Q261 66 254 51Q275 57 296 64T339 78T381 88T425 91Q439 91 450 84Q467 73 467
61T464 35Q479 37 495 45T523 58Q552 70 580 83T640 101Q649 102 659 100T675 93T684 79T679 59Q674 52 665 49T644 43T622 40T604 36Q587 30 564 18T517 -4T469 -19T427 -15Q410 -6 408 7T408 36Q388 37 366 31T325 20Q312 16 297 11T267 0T236 -9T206 -12Q190
-12 180 -2Q164 14 174 34Q150 28 127 19T81 2T35 -13T-12 -19Q-20 -19 -28 -17T-42 -9Q-51 0 -52 10T-49 31T-39 52T-27 71Q-28 82 -21 92T1 102Z" />
<glyph unicode="n" glyph-name="n" horiz-adv-x="477" d="M2 102Q10 102 17 100T30 91Q39 80 39 71T33 52Q59 57 85 64T137 78Q149 81 163 85T191 91T220 93T247 86Q264 78 267 67T265 44Q279 48 293 51T321 60Q348 68 375 76T431 93Q444 97 461 101T492 97Q500
91 502 83T502 66T492 52T476 46Q438 43 399 28T324 2Q313 -1 299 -6T269 -15T239 -20T212 -16Q198 -10 193 4T191 34Q169 32 148 27T106 17Q92 13 77 8T46 -2T15 -10T-16 -12Q-25 -11 -34 -6Q-46 2 -48 11T-47 29T-37 47T-24 64Q-28 77 -22 89T2 102Z" />
<glyph unicode="o" glyph-name="o" horiz-adv-x="306" d="M306 47Q255 46 202 45T98 56Q94 56 90 58Q84 41 73 26T47 -1T17 -17T-16 -18Q-31 -14 -38 -3T-47 22T-44 50T-31 75Q-18 91 2 99T42 101Q44 115 58 123T88 121Q103 112 120 108T157 102T194 101T230 102Q250
102 273 104T315 101Q326 97 330 88T334 70T325 54T306 47ZM7 34Q10 37 19 37V46Q17 44 13 42T7 34Z" />
<glyph unicode="p" glyph-name="p" horiz-adv-x="491" d="M-23 7Q-14 12 -3 19T21 32Q21 39 17 41T6 45T-7 48T-18 52Q-31 63 -28 79T-9 101Q8 106 27 99T59 81Q72 68 76 56Q98 66 127 77T185 94T238 97T274 75Q278 67 279 63Q298 68 317 73T356 83Q371 86 390
91T428 99T467 104T501 101Q514 97 519 84T516 59Q508 47 496 47T472 46Q434 44 397 38T324 23Q298 17 272 12T219 -2Q208 -6 189 -13T159 -26Q147 -32 138 -29T124 -18T119 0T126 18L98 8Q92 6 86 3T72 -2Q63 -24 47 -45T11 -85T-26 -119T-57 -143Q-67 -150 -81
-159T-110 -175T-140 -183T-168 -177Q-178 -170 -181 -161T-184 -142T-178 -122T-167 -104Q-140 -68 -101 -41T-23 7ZM-39 -57Q-32 -50 -26 -44T-13 -29Q-23 -35 -32 -41T-51 -54Q-68 -66 -91 -85T-127 -126Q-102 -116 -79 -95T-39 -57Z" />
<glyph unicode="q" glyph-name="q" horiz-adv-x="440" d="M435 46Q387 48 339 40T244 16T155 -25T74 -80Q51 -103 28 -126T-19 -173Q-30 -183 -44 -182T-64 -164Q-67 -152 -61 -144T-45 -127Q-10 -89 25 -51T98 23Q77 13 64 9Q42 1 19 -7T-27 -13Q-44 -11 -52
-2T-63 19T-60 45T-44 70Q-25 90 1 100T53 112Q62 113 77 113T109 113T139 106T160 92Q177 94 195 89T215 63Q215 56 212 49Q251 66 292 78T376 97Q390 99 409 102T444 101Q456 98 460 89T464 70T455 53T435 46ZM5 41Q14 43 25 46T49 55Q37 53 25 50T5 41Z" />
<glyph unicode="r" glyph-name="r" horiz-adv-x="364" d="M3 102Q23 101 29 90T33 64Q59 86 76 114Q80 120 83 127T91 140T102 149T117 152Q132 150 136 139T140 116Q145 106 166 103T212 99T261 99T293 101Q302 101 313 102T337 105T360 105T379 97Q387 91 389
83T389 66T380 53T363 47Q347 43 329 44T294 45Q267 45 240 45T186 47Q167 49 146 54T109 70Q98 57 86 45T62 21Q50 10 37 -1T7 -17Q-14 -23 -29 -8Q-36 0 -37 8T-36 26T-30 44T-23 61Q-28 74 -21 88T3 102Z" />
<glyph unicode="s" glyph-name="s" horiz-adv-x="453" d="M-13 55Q-25 67 -25 78T-18 95T-1 103T18 98Q31 87 54 84T100 79T141 71T165 49Q202 60 240 68T309 84Q323 87 342 91T381 100T420 104T454 101Q462 98 466 92T472 79T472 64T462 52Q452 44 437 45T409
44Q343 36 278 21T149 -15Q140 -18 126 -25T97 -38T69 -43T49 -30Q44 -20 45 -11T53 5T69 18T88 27Q77 29 63 30T35 34T8 41T-13 55Z" />
<glyph unicode="t" glyph-name="t" horiz-adv-x="249" d="M354 372Q323 346 293 321T234 269Q263 269 294 269T356 269T417 262T473 244Q484 239 492 230T502 207Q503 194 496 187T478 178T459 180T447 196Q431 206 407 208T366 212Q337 215 309 217T251 220Q234
221 218 221T184 222L174 213Q133 174 88 129T16 31Q51 39 84 54T152 82Q172 89 192 94T234 102Q243 103 252 100T267 91T274 77T269 58Q261 47 245 46T217 42Q190 37 164 27T112 6Q86 -5 56 -17T-4 -28Q-37 -26 -44 -10T-42 30T-12 83T30 138T72 183T97 209Q101
213 104 216T111 223Q82 223 54 223T-3 222Q-61 220 -118 217T-234 207Q-255 204 -275 202T-317 194Q-322 193 -328 191T-339 191Q-350 195 -350 205T-339 219Q-219 251 -92 259T159 269Q185 293 211 316T264 362Q277 374 294 392T330 416Q340 419 347 416T359
405T362 388T354 372ZM451 193Q449 195 448 195Q448 193 451 193Z" />
<glyph unicode="u" glyph-name="u" horiz-adv-x="442" d="M2 102Q21 102 31 88Q41 74 36 63T21 41Q39 41 57 46T94 58T131 74T165 87Q179 90 194 90T221 79Q229 69 229 61T226 46L275 61Q303 69 330 76T385 91Q392 93 401 96T420 101T439 103T455 97Q464 91 466
83T466 66T456 52T439 46Q405 43 372 33T305 11T239 -10T171 -19Q153 -19 143 -8Q131 3 131 17Q97 4 63 -6T-4 -11Q-24 -8 -33 0T-43 20T-39 45T-25 70Q-27 81 -20 91T2 102Z" />
<glyph unicode="v" glyph-name="v" horiz-adv-x="440" d="M1 102Q15 102 22 97T33 83T37 64T36 43Q60 44 82 54T126 78T170 104T215 120Q234 123 254 122T294 118T334 112T373 106Q381 105 392 105T415 106T437 103T455 96Q464 89 466 78T461 57Q453 46 440 46T415
46Q391 47 367 51T319 58T271 64T224 65Q203 60 183 51T142 32T103 12T62 -5Q50 -9 37 -11T10 -10Q-15 -2 -17 15T-17 53Q-23 59 -25 67T-25 83T-16 96T1 102Z" />
<glyph unicode="w" glyph-name="w" horiz-adv-x="686" d="M1 102Q11 102 19 98Q30 93 34 87T38 74T36 58T33 42Q45 41 58 44T85 52T111 62T134 72Q160 82 186 93T240 111Q255 111 261 107T270 97T271 81T269 63Q311 75 351 93T435 116Q477 120 522 114T610 105Q618
105 630 105T656 106T681 104T701 96Q710 89 711 78T706 57Q698 46 686 46T662 47Q606 49 551 52T441 61Q421 55 403 50T367 37Q342 29 314 17T260 3Q256 3 253 3T244 3Q224 8 219 20T215 48Q171 34 130 15T43 -11Q34 -13 25 -13T6 -9Q-17 0 -18 17T-17 53Q-23
59 -25 67T-25 82T-16 96T1 102Z" />
<glyph unicode="x" glyph-name="x" horiz-adv-x="550" d="M-16 21Q-3 25 10 28T36 37Q34 37 33 38Q28 40 18 44T2 46Q-12 47 -18 56T-25 75T-19 94T2 102Q32 101 62 89T120 67L123 65L191 89Q209 95 229 104T268 116Q281 121 290 115T303 100T304 79T288 64Q252
50 218 40Q228 39 237 38T257 38Q290 41 323 49T388 66T454 85T520 99Q528 101 538 102T558 101Q566 98 570 92T576 79T576 64T566 52Q560 47 553 47T538 45Q518 43 498 39T457 29Q433 23 408 16T358 1T307 -11T256 -17Q222 -18 187 -8T120 11Q115 9 111 9T103
6Q77 -2 53 -10T3 -27Q-9 -31 -18 -26T-31 -11T-32 7T-16 21Z" />
<glyph unicode="y" glyph-name="y" horiz-adv-x="460" d="M3 102Q22 102 32 88Q42 74 37 63T22 41Q40 41 59 46T96 58T132 74T166 87Q178 91 191 92T216 89T235 77T245 55Q320 83 396 96Q403 97 413 99T435 102T456 103T473 98Q482 92 484 83T485 66T475 52T457
46Q403 48 350 37T245 8Q240 -10 227 -27T197 -60T165 -89T136 -112Q124 -121 103 -137T59 -166T13 -184T-28 -178Q-51 -162 -47 -141T-21 -99T32 -56T95 -16T152 14T186 30L193 33Q191 38 169 30T116 12T53 -7T-3 -11Q-24 -8 -33 0T-42 20T-38 45T-24 70Q-26 81
-19 91T3 102ZM111 -61Q116 -56 129 -47T151 -29Q142 -34 129 -42T107 -55Q101 -58 88 -66T59 -84T29 -107T9 -129Q37 -121 63 -100T111 -61Z" />
<glyph unicode="z" glyph-name="z" horiz-adv-x="494" d="M2 102Q40 103 77 105T152 109Q167 110 186 108T215 91Q225 75 219 65T199 48T169 39T145 35Q123 31 107 26T69 13L52 6Q88 7 124 13T198 28Q246 37 292 53T387 83Q412 90 437 95T488 102Q497 102 505
98T519 88T524 73T516 55Q508 46 490 45T461 40Q432 34 404 26T348 9Q262 -17 178 -31T2 -43Q-6 -43 -17 -39T-36 -27T-43 -10T-23 12Q0 26 25 33T77 50L32 47Q19 46 4 46T-21 57Q-31 71 -23 86T2 102Z" />
<glyph unicode="{" glyph-name="braceleft" horiz-adv-x="388" d="M127 -136Q118 -136 109 -131T92 -117T79 -100T72 -81Q70 -68 74 -56T85 -33T100 -13T117 6Q128 20 135 35T129 68Q118 82 122 91T136 105T160 114T181 121Q201 128 217 140T248 167T275 198T304
229Q337 262 377 278T465 297Q474 297 483 295T499 287T507 273T501 253Q495 245 484 242T460 237T433 236T410 232Q389 225 373 214T342 188T315 158T287 127Q270 108 249 94T204 70Q196 67 194 63T192 54T192 43T192 29Q189 14 182 1T165 -23Q162 -27 155 -34T140
-50T130 -66T133 -78Q141 -84 147 -89T155 -105Q156 -117 148 -126T127 -136Z" />
<glyph unicode="|" glyph-name="bar" horiz-adv-x="255" d="M-12 -137Q-33 -137 -37 -128T-38 -106T-24 -81T-10 -61L81 58L294 335Q299 342 305 352T320 371T337 385T357 386Q373 380 375 370T372 349T358 326T343 308Q291 239 239 172T134 35L43 -84Q38 -90
33 -99T20 -116T5 -131T-12 -137Z" />
<glyph unicode="}" glyph-name="braceright" horiz-adv-x="419" d="M-67 -136Q-77 -136 -84 -131T-93 -117T-94 -100T-84 -85Q-75 -78 -64 -79T-41 -78Q-14 -77 11 -67Q31 -59 47 -47T78 -19T106 12T135 43Q152 59 170 72T211 93Q218 96 220 99T223 107T221 118T222
132Q225 145 231 157T245 180Q247 183 254 190T268 207T281 224T283 235Q278 241 271 249T259 265T257 281T274 295Q283 299 293 296T312 286T327 270T337 252Q342 237 340 224T330 199T314 176T296 155Q291 147 285 139T277 122Q275 111 281 104T291 86Q295 71
289 63T271 51T246 44T224 38Q204 29 189 16T159 -12T132 -43T103 -73Q68 -106 25 -121T-67 -136Z" />
<glyph unicode="~" glyph-name="asciitilde" horiz-adv-x="529" d="M296 13Q271 13 257 25T227 54Q222 58 214 56T198 48T182 37T171 29Q162 23 152 24T136 33T127 50T132 69Q138 78 149 85T174 99T201 108T226 112Q238 111 246 107T260 96T273 82T289 70Q295
67 304 68T322 73T339 81T352 89Q363 95 374 99T397 93Q405 85 406 74T400 54Q392 45 379 38T352 25T323 16T296 13Z" />
</font>
</defs>
</svg>
